<?xml version="1.0" encoding="UTF-8" standalone="no"?>
<svg width="110px" height="116px" viewBox="0 0 110 116" version="1.1" xmlns="http://www.w3.org/2000/svg" xmlns:xlink="http://www.w3.org/1999/xlink" xmlns:sketch="http://www.bohemiancoding.com/sketch/ns">
    <title>angular-icon</title>
    <description>Created with Sketch (http://www.bohemiancoding.com/sketch)</description>
    <defs></defs>
    <g id="Page-1" stroke="none" stroke-width="1" fill="none" fill-rule="evenodd" sketch:type="MSPage">
        <g id="960-Grid" sketch:type="MSArtboardGroup" transform="translate(-41.000000, -2658.000000)">
            <g id="technology" sketch:type="MSLayerGroup" transform="translate(41.000000, 2549.000000)">
                <g id="icons" transform="translate(0.000000, 99.000000)" sketch:type="MSShapeGroup">
                    <g id="angular-icon" transform="translate(0.000000, 10.000000)">
                        <path d="M54,0 L110,20 L100,89 L54,116 L9,90 L0,20 L54,0 Z" id="background" fill="#B3B3B3"></path>
                        <path d="M54,6 L54,111 L13,88 L5,23 L54,6 Z" id="Path-16" fill="#C4473A"></path>
                        <path d="M54,6 L105,23 L96,87 L54,111 L54,6 Z" id="Path-17" fill="#9E3C34"></path>
                        <path d="M54,10 L20,85 L33,85 L40,68 L54.3969727,68 L54.3969727,57.9921237 L43.999997,57.9921237 L54,34 L54,10 Z" id="Path-18" fill="#F2F2F2"></path>
                        <path d="M54,10 L90,85 L78,85 L70,68 L54,68 L54,57.9501244 L66.0001131,57.9501244 L54,34 L54,10 Z" id="Path-19" fill="#B3B3B3"></path>
                    </g>
                </g>
            </g>
        </g>
    </g>
</svg>