<?xml version="1.0" encoding="UTF-8" standalone="no"?>
<svg width="133px" height="135px" viewBox="0 0 133 135" version="1.1" xmlns="http://www.w3.org/2000/svg" xmlns:xlink="http://www.w3.org/1999/xlink" xmlns:sketch="http://www.bohemiancoding.com/sketch/ns">
    <title>meteor-icon</title>
    <description>Created with Sketch (http://www.bohemiancoding.com/sketch)</description>
    <defs></defs>
    <g id="Page-1" stroke="none" stroke-width="1" fill="none" fill-rule="evenodd" sketch:type="MSPage">
        <g id="960-Grid" sketch:type="MSArtboardGroup" transform="translate(-189.000000, -2647.000000)">
            <g id="technology" sketch:type="MSLayerGroup" transform="translate(41.000000, 2549.000000)">
                <g id="icons" transform="translate(0.000000, 99.000000)" sketch:type="MSShapeGroup">
                    <g id="meteor-icon" transform="translate(149.000000, 0.000000)">
                        <path d="M0.189401558,53.9751416 C-1.0104174,45.5937172 8.58813429,39.6069855 8.58813429,39.6069855 C8.58813429,39.6069855 37.3837887,21.6467908 39.7834273,19.2520977 C42.183066,16.8574048 45.7825198,7.27863311 56.5808928,1.29190262 C67.379265,-4.69482908 97.3747375,12.0680197 97.3747375,12.0680197 C97.3747375,12.0680197 132.169489,28.8308684 130.969668,39.6069855 C129.769848,50.3831026 118.97148,58.7645269 118.971479,67.1459513 C118.97148,75.5273757 127.370213,88.6981854 127.370212,98.2769561 C124.970575,105.461034 126.170391,109.053073 108.173108,121.026537 C90.1758253,133 72.1785409,133 64.9796255,133 C57.7807101,133.000001 52.9814375,122.223883 48.18216,121.026537 C43.3828825,119.82919 36.1839697,121.026537 28.9850566,118.631844 C21.7861433,116.237152 15.7870481,104.263688 15.7870481,104.263688 C15.7870481,104.263688 10.9877717,95.8822635 9.78795297,91.0928781 C8.58813442,86.3034927 8.58813401,80.316761 6.18849637,75.5273757 C3.7888591,70.7379901 -1.0104174,64.7512586 0.189401558,53.9751416 Z" id="Path-8-copy" stroke="#DBDBDB" fill="#FFFFFF"></path>
                        <path d="M11,56 C10,49 18,44 18,44 C18,44 41.9999994,29.0000003 44,27 C46.0000007,24.9999998 48.9999981,16.999999 58,12 C67.0000014,7 92,21 92,21 C92,21 121.000001,35 120,44 C118.999999,53 110.000001,60 110,67 C110.000001,74 117.000001,85 117,93 C115.000001,99 115.999999,102 101,112 C86.0000014,122 71.0000014,122 65,122 C58.9999986,122.000001 55.0000014,113 51,112 C46.9999986,111 40.9999994,112 35,110 C29.0000003,108.000001 24,98 24,98 C24,98 19.9999995,91 18.9999998,87 C18.0000001,83 17.9999998,78 16,74 C14.0000006,69.9999998 10,65 11,56 Z M51,30 C51,30 55,22 57,20 C59.0000001,18.0000001 69,18 69,18 C69,18 81,20 92,29 C99,33 112,36 113,44 C113,52 103,57 103,66 C103,71 109,84 110,92 C111,100 93,109 93,109 C93,109 77,116 71,116 C65,116.000001 57,107 54,105 C50.9999998,103 39,105 36,103 C32.9999998,101 27,89 27,84 C26.9999998,79 18,64 18,57 C17.9999997,50 36,39 36,39 L51,30 Z" id="Path-8" fill="#000000"></path>
                        <path d="M46,68 C48,68 48.0000002,65 49,63 C49.9999998,61 50,55 50,55 C50,55 64.0000007,66 66,66 C67.9999993,66 70.0000007,63 70.0000007,61 C70.0000006,59 55.9437873,48.9999995 51,49 C46.0562127,49.0000005 42,52 41,58 C40,64 44,68 46,68 Z" id="Path-10" fill="#000000"></path>
                        <path d="M92,35 C89,35.0000006 86,39 86,39 C86,39 83,44 84,46 C85,48 85.9999999,50 88,50 C90.0000001,50 91.9999999,46 93,44 C94,41.9999999 95,38 95,38 C95,38 95,34.9999994 92,35 Z" id="Path-11" fill="#000000"></path>
                        <path d="M52,84 C50.5800001,82 49,77.0000004 46,77 C43,76.9999996 44,82 44,82 C44,82 45,88 48,90 C51,92 55,93 57,92 C59,91 63,88 63,86 C62.9999999,84 53.4199999,86 52,84 Z" id="Path-12" fill="#000000"></path>
                        <path d="M83,91 C86.0000001,91.0000006 89,87 89,87 C89,87 93.0000023,86 93,89 C92.9999979,92 89,97 89,97 C89,97 86.0000004,99 82,99 C77.9999996,99.0000003 74,93 74,93 C74,93 72,89 74,88 C76,87 79.9999999,90.9999994 83,91 Z" id="Path-13" fill="#000000"></path>
                    </g>
                </g>
            </g>
        </g>
    </g>
</svg>