<?xml version="1.0" encoding="UTF-8" standalone="no"?>
<svg width="59px" height="125px" viewBox="0 0 59 125" version="1.1" xmlns="http://www.w3.org/2000/svg" xmlns:xlink="http://www.w3.org/1999/xlink" xmlns:sketch="http://www.bohemiancoding.com/sketch/ns">
    <title>mongodb-icon</title>
    <description>Created with Sketch (http://www.bohemiancoding.com/sketch)</description>
    <defs></defs>
    <g id="Page-1" stroke="none" stroke-width="1" fill="none" fill-rule="evenodd" sketch:type="MSPage">
        <g id="960-Grid" sketch:type="MSArtboardGroup" transform="translate(-693.000000, -2651.000000)">
            <g id="technology" sketch:type="MSLayerGroup" transform="translate(41.000000, 2549.000000)">
                <g id="icons" transform="translate(0.000000, 99.000000)" sketch:type="MSShapeGroup">
                    <g id="mongodb-icon" transform="translate(653.000000, 3.000000)">
                        <path d="M32.0000003,55.5 C31.8082564,37.0925905 28,0 28,0 C28,0 26.0000003,5 20.0000003,10 C14.0000003,14.9999992 9.45776829,23.1013563 7,29 C2,41 0.99999991,48 1.45661261e-13,59 C-0.456924721,64.0261723 -1,75 8,89 C16.9999999,103.000001 27,111 27,111 L29,101 C29,101 32.1415898,69.0925905 32.0000003,55.5 Z" id="Path-21" fill="#6DB358"></path>
                        <path d="M34,10 C29.8997347,4.65244824 28,0 28,0 C28,0 29.8155984,36.9286478 30,55 C30.148932,69.5953144 29,98 29,98 C29,98 29,104 30,106 C31,108 32,111 32,111 C32,111 59,91 57,61 C55,38 47,24 40,16 C38.0658598,13.7895543 35.5654772,12.0416897 34,10 Z" id="Path-20" fill="#549A48"></path>
                        <path d="M29.2420721,100.968288 C29.1083794,100.433517 28.8823964,100.431213 28.7390177,100.956935 L26.2609823,110.043065 C26.1168458,110.571566 26.1070175,111.42807 26.2420721,111.968288 L26.7579279,114.031712 C26.8916206,114.566483 27.0442591,115.442591 27.0995398,115.995398 L27.9004602,124.004602 C27.9554345,124.554345 28.4426603,125 28.9989566,125 L30.0010434,125 C30.5527519,125 31.0379801,124.544239 31.0835394,123.997527 L31.9164606,114.002473 C31.9625981,113.448823 32.1070175,112.57193 32.2420721,112.031712 L32.7579279,109.968288 C32.8916206,109.433517 32.764595,108.607658 32.4842816,108.140469 L30.5157184,104.859531 C30.230895,104.384825 29.8929825,103.57193 29.7579279,103.031712 L29.2420721,100.968288 Z" id="Path-22" fill="#B3B593"></path>
                    </g>
                </g>
            </g>
        </g>
    </g>
</svg>