<?xml version="1.0" encoding="UTF-8" standalone="no"?>
<svg width="132px" height="137px" viewBox="0 0 132 137" version="1.1" xmlns="http://www.w3.org/2000/svg" xmlns:xlink="http://www.w3.org/1999/xlink" xmlns:sketch="http://www.bohemiancoding.com/sketch/ns">
    <title>postgresql-logo</title>
    <description>Created with Sketch (http://www.bohemiancoding.com/sketch)</description>
    <defs></defs>
    <g id="Page-1" stroke="none" stroke-width="1" fill="none" fill-rule="evenodd" sketch:type="MSPage">
        <g id="960-Grid" sketch:type="MSArtboardGroup" transform="translate(-511.000000, -2651.000000)">
            <g id="technology" sketch:type="MSLayerGroup" transform="translate(41.000000, 2549.000000)">
                <g id="icons" transform="translate(0.000000, 99.000000)" sketch:type="MSShapeGroup">
                    <g id="postgresql-logo" transform="translate(472.717559, 6.000000)">
                        <path d="M60.082139,89.9595984 C59.6271856,106.22527 60.811018,119.131824 62.4025791,123.112619 C63.995162,127.093036 69.2469732,132.992332 80.9667436,130.481631 C90.7579097,128.382253 95.2422827,124.320102 96.7882085,115.353853 C97.926784,108.757162 99.5072201,95.1380752 99.7887516,91.3843597" id="path2466-5" stroke="#000000" stroke-width="4"></path>
                        <path d="M51.6587467,6.57382743 C51.6587467,6.57382743 -2.32219411,-15.1122338 0.14446079,34.2033441 C0.669078092,44.6948955 16.1045724,113.589362 33.4143703,92.7796056 C43.8881367,83.0187116 45.4606642,79.2011596 45.4606642,79.2011596" id="path2468-0" stroke="#000000" stroke-width="4"></path>
                        <path d="M76.5383363,2.61577454 C74.7017217,3.19162755 106.05313,-8.84516853 123.870442,13.9216482 C130.164109,21.9645567 122.870853,54.8257157 105.424377,80.7145806" id="path2470-7" stroke="#000000" stroke-width="4"></path>
                        <path d="M105.424036,75.3980626 C105.424036,75.3980626 106.560984,80.9943337 123.085332,77.5835644 C130.325422,76.088231 125.96823,87.0962641 118.625328,90.50639 C112.599078,93.3032012 99.0883285,94.0198956 98.8675684,90.1552325 C98.2995862,80.1837197 105.978547,77.8966168 105.424377,75.3980626 C104.923409,73.147854 101.489293,76.2558633 99.2177421,70.7486304 C97.23461,65.9417449 72.0195287,29.0791302 106.21047,34.5538584 C107.46302,34.2946526 97.2930732,2.03201292 65.2952018,1.50743345 C33.3045578,0.982816152 34.3540952,40.8488498 34.3540952,40.8488498" id="path2472-2" stroke="#000000" stroke-width="4"></path>
                        <path d="M52.9703278,84.1247066 C48.510324,89.106679 49.8220186,89.98147 40.9069301,91.8171008 C31.8867591,93.6763061 37.1912062,95.5051256 40.6450755,96.5279478 C48.0657388,97.8848993 53.9282539,100.078121 61.099285,92.433897 C63.0958883,89.638713 61.087933,83.9495819 58.3448172,82.8126715 C57.0196514,82.2637607 55.2477436,81.5758627 52.97029,84.1247066 L52.9703278,84.1247066 Z" id="path2474-7" stroke="#000000" stroke-width="4"></path>
                        <path d="M52.6783146,84.0376362 C52.2289237,81.108422 53.6407815,77.6227669 55.1538619,73.5447982 C57.4277207,67.4262181 62.6741208,61.3066541 58.4772581,41.8977438 C55.3489663,27.4343657 34.366923,38.8877407 34.3537546,40.8488498 C34.3424025,42.8093156 35.3027882,50.7891443 34.0033538,60.0816894 C32.3076563,72.2074858 41.7190955,82.4628383 52.5565446,81.4136037" id="path2476-1" stroke="#000000" stroke-width="4"></path>
                        <path d="M47.6858226,40.554831 C47.591222,41.2246413 48.9120739,43.011988 50.634411,43.2508357 C52.3537587,43.4907429 53.8254041,42.0938698 53.9187182,41.4247028 C54.0121836,40.7548924 52.6927696,40.0170831 50.9697892,39.7772894 C49.2494577,39.5370038 47.7771312,39.8866477 47.6861254,40.554831 L47.6858226,40.554831 L47.6858226,40.554831 Z" id="path2478-4" stroke="#000000" stroke-width="4"></path>
                        <path d="M100.056093,39.1892897 C100.149558,39.8591 98.8301444,41.6464467 97.1075046,41.8852565 C95.3868325,42.1251637 93.9151493,40.7282907 93.8208892,40.0591615 C93.7296942,39.3893511 95.0494488,38.6515418 96.7704614,38.4117481 C98.4914363,38.1718409 99.9627789,38.5211064 100.056093,39.1896302 L100.056093,39.1892897 L100.056093,39.1892897 Z" id="path2480-8" stroke="#000000" stroke-width="4"></path>
                        <path d="M106.21047,34.5538584 C106.493894,39.8078265 105.078781,43.386493 104.900403,48.9794719 C104.636278,57.1091103 108.776342,66.4141048 102.538187,75.7306028" id="path2482-4" stroke="#000000" stroke-width="4"></path>
                        <path d="M42.1470687,81.3510916 L52.4155897,81.1149684 L47.903669,87.7213851 L40.1244692,87.0135453 L42.1470687,81.3510916 Z" id="path11678" fill="#000000"></path>
                        <path d="M103.602028,78.4664911 C119.681223,54.6076045 126.402825,24.3222695 120.602179,16.9101203 C104.777573,-3.30887427 77.3844066,6.25339614 76.9272585,6.50166606 C73.7713433,5.90360082 70.4042039,5.53151759 66.6198378,5.46976229 C59.7290137,5.35661993 54.5021014,7.27625609 50.5357993,10.2840266 C50.5357993,10.2840266 1.66908253,-9.84714066 3.94180611,35.6027903 C4.42529106,45.2719215 17.8003456,108.763594 33.7536081,89.5862664 C39.5845266,82.5737102 45.2183352,76.6444071 45.2183352,76.6444071 C48.0166221,78.5032718 51.3665443,79.4514729 54.8784227,79.1109106 C55.0664888,79.7500325 55.1050858,80.6016653 55.2606093,81.6098054 C51.150817,86.2015691 52.3584509,87.0077935 44.1428017,88.6989502 C35.8296759,90.4121678 40.7133015,93.4625087 43.9017592,94.2598028 C47.7672549,95.226243 56.7100803,96.5956818 62.7526393,88.1367197 L63.5115969,91.1019111 C63.5115969,91.1019111 65.2526693,97.4913607 65.0631275,103.927231 C64.8735478,110.36348 64.7471614,114.782087 66.0158694,118.233497 C67.2846911,121.684528 68.5492746,129.450105 79.3494511,127.135795 C88.3740493,125.202158 93.0505751,120.190216 93.7012005,111.830547 C94.1628894,105.887357 95.2076589,106.766007 95.2736523,101.452479 L96.1116626,98.93648 C97.078027,90.8802518 96.265294,88.281156 101.825125,89.4900008 L103.176287,89.6088192 C107.268521,89.7949932 112.624431,88.9506258 115.767821,87.4895757 C122.536648,84.3482669 126.551083,79.1034939 119.877008,80.4815982 C104.648916,83.6226043 103.602028,78.4664911 103.602028,78.4664911 Z" id="path2464" stroke="#FFFFFF" stroke-width="4" fill="#316192"></path>
                        <path d="M63.4065568,85.0993959 C62.9872489,100.090229 63.5117527,115.185464 64.9787437,118.854077 C66.4464537,122.523068 69.5874598,129.658605 80.3885823,127.344673 C89.4122346,125.41028 92.6955579,121.666365 94.1202813,113.40281 C95.1695916,107.323016 97.1925695,90.4383533 97.4520023,86.9788457" id="path2466" stroke="#FFFFFF" stroke-width="4" fill="#316192"></path>
                        <path d="M50.4604972,9.94902686 C50.4604972,9.94902686 1.56044315,-10.0370987 3.83377218,35.4127943 C4.31725713,45.0819635 17.6932577,108.575907 33.6462175,89.3974814 C39.4759251,82.3840549 44.7482458,76.883444 44.7482458,76.883444" id="path2468" stroke="#FFFFFF" stroke-width="4" fill="#316192"></path>
                        <path d="M76.8736767,6.30122623 C75.1810064,6.83197365 104.074917,-4.2613135 120.495621,16.7208811 C126.295964,24.133371 119.574362,54.4186681 103.495432,78.278198" id="path2470" stroke="#FFFFFF" stroke-width="4" fill="#316192"></path>
                        <path d="M103.495129,78.278198 C103.495129,78.278198 104.542963,83.4357869 119.772039,80.2923591 C126.444601,78.9142548 122.428955,84.159671 115.661641,87.3024935 C110.107751,89.8800581 97.6560748,90.5406733 97.4526077,86.9789593 C96.9291635,77.7890748 104.006199,80.5810045 103.495432,78.2783115 C103.033743,76.2044763 99.8688216,74.1691246 97.7753473,69.0935733 C95.9476629,64.6634632 72.7090917,30.6903683 104.219921,35.7359501 C105.374314,35.4971781 96.0015475,5.76336483 66.5118417,5.27987989 C37.0287958,4.79639494 37.9960684,41.5375046 37.9960684,41.5375046" id="path2472" stroke="#FFFFFF" stroke-width="4" fill="#316192"></path>
                        <path d="M55.1530673,81.4210204 C51.0426695,86.0124813 52.2515522,86.8187058 44.0352975,88.5104301 C35.7221339,90.2239882 40.6063649,93.2735723 43.7938767,94.0702232 C47.6593344,95.0377985 56.6021977,96.4068589 62.6447189,87.9461184 C64.4848149,85.3700294 62.6333668,81.2596317 60.1062054,80.211835 C58.8849111,79.7059486 57.2518771,79.0720108 55.1529538,81.4210204 L55.1529538,81.4210204 L55.1530673,81.4210204 Z" id="path2474" stroke="#FFFFFF" stroke-width="4" fill="#316192"></path>
                        <path d="M54.8839474,81.340799 C54.4697858,78.6411995 55.7709987,75.428751 57.1654499,71.670419 C59.2610433,66.0314641 64.0962333,60.3915632 60.2283159,42.5040582 C57.3452668,29.174412 38.0078746,39.7299891 37.9957657,41.5373911 C37.9844136,43.3441876 38.8704053,50.6985169 37.6726099,59.2626371 C36.1098452,70.4379619 44.7835507,79.8893982 54.7714862,78.9224283" id="path2476" stroke="#FFFFFF" stroke-width="4" fill="#316192"></path>
                        <path d="M50.2827615,41.266417 C50.1957289,41.8837429 51.4129364,43.5309671 53.0002216,43.7510838 C54.5848202,43.9720709 55.9411285,42.6847833 56.0271015,42.0681006 C56.1129989,41.4508125 54.8972672,40.7708232 53.3093387,40.5498361 C51.7238698,40.3284706 50.3669561,40.6504911 50.2830642,41.266417 L50.2827615,41.266417 L50.2827615,41.266417 Z" id="path2478" stroke="#FFFFFF" fill="#FFFFFF"></path>
                        <path d="M98.5479696,40.0079258 C98.633867,40.6252139 97.4180974,42.2724759 95.8305095,42.4925548 C94.2447001,42.7135419 92.8883918,41.4262921 92.8015106,40.8095716 C92.7175052,40.1922835 93.9337667,39.5123319 95.5198788,39.291307 C97.1059532,39.0703199 98.4619587,39.3919621 98.5479696,40.0082285 L98.5479696,40.0079258 L98.5479696,40.0079258 Z" id="path2480" stroke="#FFFFFF" fill="#FFFFFF"></path>
                        <path d="M104.219921,35.7358366 C104.481397,40.5779892 103.176968,43.876108 103.012552,49.0306698 C102.769239,56.5230782 106.584672,65.0987018 100.835527,73.6849207" id="path2482" stroke="#FFFFFF" stroke-width="4" fill="#316192"></path>
                    </g>
                </g>
            </g>
        </g>
    </g>
</svg>