<?xml version="1.0" encoding="UTF-8" standalone="no"?>
<svg width="59px" height="59px" viewBox="0 0 59 59" version="1.1" xmlns="http://www.w3.org/2000/svg" xmlns:xlink="http://www.w3.org/1999/xlink" xmlns:sketch="http://www.bohemiancoding.com/sketch/ns">
    <title>ga-logo-small</title>
    <description>Created with Sketch (http://www.bohemiancoding.com/sketch)</description>
    <defs></defs>
    <g id="Page-1" stroke="none" stroke-width="1" fill="none" fill-rule="evenodd" sketch:type="MSPage">
        <g id="960-Grid" sketch:type="MSArtboardGroup" transform="translate(-13.000000, -9.000000)">
            <g id="navbar" sketch:type="MSLayerGroup">
                <g id="ga-logo" transform="translate(11.000000, 7.000000)" sketch:type="MSShapeGroup">
                    <g id="ga-logo-small">
                        <path d="M22.0737411,3.53808556 C20.9097749,3.93032302 19.7782998,4.3932005 18.6844139,4.92161991 L18.6844139,4.92161991 C18.7007987,4.9472562 18.7166845,4.9733847 18.7320508,5 C19.2843356,5.95658529 18.9565853,7.17976603 18,7.73205081 C17.0434147,8.28433558 15.820234,7.95658529 15.2679492,7 C15.2487602,6.96676366 15.2306336,6.93320549 15.2135588,6.8993648 C14.1096032,7.63168788 13.0577894,8.4363345 12.0648765,9.30654547 C12.1888926,9.38468663 12.3061941,9.47776696 12.4142136,9.58578644 C13.1952622,10.3668351 13.1952622,11.6331649 12.4142136,12.4142136 C11.6331649,13.1952622 10.3668351,13.1952622 9.58578644,12.4142136 C9.47776696,12.3061941 9.38468663,12.1888926 9.30654547,12.0648765 L9.30654547,12.0648765 C8.4363345,13.0577894 7.63168788,14.1096032 6.8993648,15.2135588 L6.8993648,15.2135588 C6.93320549,15.2306336 6.96676366,15.2487602 7,15.2679492 C7.95658529,15.820234 8.28433558,17.0434147 7.73205081,18 C7.17976603,18.9565853 5.95658529,19.2843356 5,18.7320508 C4.9733847,18.7166845 4.9472562,18.7007987 4.92161991,18.6844139 C4.3932005,19.7782998 3.93032302,20.9097749 3.53808556,22.0737411 C4.59264344,22.3680791 5.21590422,23.4575395 4.93185165,24.5176381 C4.6495744,25.5711111 3.57683396,26.2016917 2.52275208,25.942233 L2.52275208,25.942233 C2.3315232,26.945292 2.19108523,27.9663632 2.10421618,29.0026685 L2.10421618,29.0026685 C3.16034674,29.0568834 4,29.9303859 4,31 C4,32.0920565 3.12474234,32.9796855 2.03745772,32.9996563 C2.1065458,34.3794634 2.27043765,35.734294 2.52275208,37.057767 C3.57683396,36.7983083 4.6495744,37.4288889 4.93185165,38.4823619 C5.21590422,39.5424605 4.59264344,40.6319209 3.53808556,40.9262589 L3.53808556,40.9262589 C3.93032302,42.0902251 4.3932005,43.2217002 4.92161991,44.3155861 L4.92161991,44.3155861 C4.9472562,44.2992013 4.9733847,44.2833155 5,44.2679492 C5.95658529,43.7156644 7.17976603,44.0434147 7.73205081,45 C8.28433558,45.9565853 7.95658529,47.179766 7,47.7320508 C6.96676366,47.7512398 6.93320549,47.7693664 6.8993648,47.7864412 C7.63168788,48.8903968 8.4363345,49.9422106 9.30654547,50.9351235 C9.38468663,50.8111074 9.47776696,50.6938059 9.58578644,50.5857864 C10.3668351,49.8047378 11.6331649,49.8047378 12.4142136,50.5857864 C13.1952622,51.3668351 13.1952622,52.6331649 12.4142136,53.4142136 C12.3061941,53.522233 12.1888926,53.6153134 12.0648765,53.6934545 L12.0648765,53.6934545 C13.0577894,54.5636655 14.1096032,55.3683121 15.2135588,56.1006352 L15.2135588,56.1006352 C15.2306336,56.0667945 15.2487602,56.0332363 15.2679492,56 C15.820234,55.0434147 17.0434147,54.7156644 18,55.2679492 C18.9565853,55.820234 19.2843356,57.0434147 18.7320508,58 C18.7166845,58.0266153 18.7007987,58.0527438 18.6844139,58.0783801 C19.7782998,58.6067995 20.9097749,59.069677 22.0737411,59.4619144 C22.3680791,58.4073566 23.4575395,57.7840958 24.5176381,58.0681483 C25.5711111,58.3504256 26.2016917,59.423166 25.942233,60.4772479 C26.945292,60.6684768 27.9663632,60.8089148 29.0026685,60.8957838 L29.0026685,60.8957838 C29.0568834,59.8396533 29.9303859,59 31,59 C32.0920565,59 32.9796855,59.8752577 32.9996563,60.9625423 C34.3794634,60.8934542 35.734294,60.7295623 37.057767,60.4772479 C36.7983083,59.423166 37.4288889,58.3504256 38.4823619,58.0681483 C39.5424605,57.7840958 40.6319209,58.4073566 40.9262589,59.4619144 L40.9262589,59.4619144 C42.0902251,59.069677 43.2217002,58.6067995 44.3155861,58.0783801 C44.2992013,58.0527438 44.2833155,58.0266153 44.2679492,58 C43.7156644,57.0434147 44.0434147,55.820234 45,55.2679492 C45.9565853,54.7156644 47.179766,55.0434147 47.7320508,56 C47.7512398,56.0332363 47.7693664,56.0667945 47.7864412,56.1006352 C48.8903968,55.3683121 49.9422106,54.5636655 50.9351235,53.6934545 C50.8111074,53.6153134 50.6938059,53.522233 50.5857864,53.4142136 C49.8047378,52.6331649 49.8047378,51.3668351 50.5857864,50.5857864 C51.3668351,49.8047378 52.6331649,49.8047378 53.4142136,50.5857864 C53.522233,50.6938059 53.6153134,50.8111074 53.6934545,50.9351235 L53.6934545,50.9351235 C54.5636655,49.9422106 55.3683121,48.8903968 56.1006352,47.7864412 L56.1006352,47.7864412 C56.0667945,47.7693664 56.0332363,47.7512398 56,47.7320508 C55.0434147,47.179766 54.7156644,45.9565853 55.2679492,45 C55.820234,44.0434147 57.0434147,43.7156644 58,44.2679492 C58.0266153,44.2833155 58.0527438,44.2992013 58.0783801,44.3155861 C58.6067995,43.2217002 59.069677,42.0902251 59.4619144,40.9262589 C58.4073566,40.6319209 57.7840958,39.5424605 58.0681483,38.4823619 C58.3504256,37.4288889 59.423166,36.7983083 60.4772479,37.057767 L60.4772479,37.057767 C60.7295623,35.734294 60.8934542,34.3794634 60.9625423,32.9996563 L60.9625423,32.9996563 C59.8752577,32.9796855 59,32.0920565 59,31 C59,29.9303859 59.8396533,29.0568834 60.8957838,29.0026685 C60.8089148,27.9663632 60.6684768,26.945292 60.4772479,25.942233 C59.423166,26.2016917 58.3504256,25.5711111 58.0681483,24.5176381 C57.7840958,23.4575395 58.4073566,22.3680791 59.4619144,22.0737411 L59.4619144,22.0737411 C59.069677,20.9097749 58.6067995,19.7782998 58.0783801,18.6844139 L58.0783801,18.6844139 C58.0527438,18.7007987 58.0266153,18.7166845 58,18.7320508 C57.0434147,19.2843356 55.820234,18.9565853 55.2679492,18 C54.7156644,17.0434147 55.0434147,15.820234 56,15.2679492 C56.0332363,15.2487602 56.0667945,15.2306336 56.1006352,15.2135588 C55.3683121,14.1096032 54.5636655,13.0577894 53.6934545,12.0648765 C53.6153134,12.1888926 53.522233,12.3061941 53.4142136,12.4142136 C52.6331649,13.1952622 51.3668351,13.1952622 50.5857864,12.4142136 C49.8047378,11.6331649 49.8047378,10.3668351 50.5857864,9.58578644 C50.6938059,9.47776696 50.8111074,9.38468663 50.9351235,9.30654547 L50.9351235,9.30654547 C49.9422106,8.4363345 48.8903968,7.63168788 47.7864412,6.8993648 L47.7864412,6.8993648 C47.7693664,6.93320549 47.7512398,6.96676366 47.7320508,7 C47.179766,7.95658529 45.9565853,8.28433558 45,7.73205081 C44.0434147,7.17976603 43.7156644,5.95658529 44.2679492,5 C44.2833155,4.9733847 44.2992013,4.9472562 44.3155861,4.92161991 C43.2217002,4.3932005 42.0902251,3.93032302 40.9262589,3.53808556 C40.6319209,4.59264344 39.5424605,5.21590422 38.4823619,4.93185165 C37.4288889,4.6495744 36.7983083,3.57683396 37.057767,2.52275208 L37.057767,2.52275208 C35.734294,2.27043765 34.3794634,2.1065458 32.9996563,2.03745772 L32.9996563,2.03745772 C32.9796855,3.12474234 32.0920565,4 31,4 C29.9303859,4 29.0568834,3.16034674 29.0026685,2.10421618 C27.9663632,2.19108523 26.945292,2.3315232 25.942233,2.52275208 C26.2016917,3.57683396 25.5711111,4.6495744 24.5176381,4.93185165 C23.4575395,5.21590422 22.3680791,4.59264344 22.0737411,3.53808556 Z" id="background" fill="#FB0F3B"></path>
                        <g id="letters" transform="translate(17.000000, 14.000000)" fill="#FFFFFF">
                            <path d="M5.72504112,17.9390528 L11.7729556,17.9390528 L11.7729556,27.9940633 C11.7729556,27.9940633 12.3329477,34.0000022 5.88597264,34 C-0.561002392,33.9999972 0.013121897,28.6796322 0.013121897,28.6796322 L0.013121897,6.17012007 C0.013121897,6.17012007 -0.434871766,0 5.94903795,0 C12.3329477,0 11.9969524,6.17012007 11.9969524,6.17012007 L11.9969524,11.3118868 L7.51701578,11.3118868 L7.51701578,6.17012007 C7.51701578,6.17012007 7.51701599,4.45619739 5.94903795,4.45619783 C4.38105991,4.4561985 4.49305854,6.17012007 4.49305854,6.17012007 L4.49305854,28.1083248 C4.49305854,28.1083248 4.38105991,29.593724 5.72504112,29.593724 C7.06902233,29.593724 7.29301895,28.3368477 7.29301895,28.3368477 L7.29301895,21.9341252 L5.72503636,21.9341252 L5.72504112,17.9390528 Z" id="g"></path>
                            <path d="M13,34 L17.9227903,34 L18.9760197,25.6734694 L21.9054411,25.6734694 L22.9600328,34 L28,34 L23.3115634,0 L17.5687019,6.94111021e-16 L13,34 Z M20,22 C21.1045696,22 22,21.1045696 22,20 C22,18.8954304 21.1045696,18 20,18 C18.8954304,18 18,18.8954304 18,20 C18,21.1045696 18.8954304,22 20,22 Z" id="a"></path>
                        </g>
                    </g>
                </g>
            </g>
        </g>
    </g>
</svg>