<?xml version="1.0" encoding="UTF-8" standalone="no"?>
<svg width="961px" height="389px" viewBox="0 0 961 389" version="1.1" xmlns="http://www.w3.org/2000/svg" xmlns:xlink="http://www.w3.org/1999/xlink" xmlns:sketch="http://www.bohemiancoding.com/sketch/ns">
    <title>hk-skyline</title>
    <description>Created with Sketch (http://www.bohemiancoding.com/sketch)</description>
    <defs></defs>
    <g id="Page-1" stroke="none" stroke-width="1" fill="none" fill-rule="evenodd" sketch:type="MSPage">
        <g id="960-Grid" sketch:type="MSArtboardGroup" transform="translate(0.000000, -101.000000)" stroke="#898989">
            <g id="hero" sketch:type="MSLayerGroup" transform="translate(-2.000000, -28.000000)">
                <path d="M2,508 L17,508 L17,354.839953 L67.0338428,354.839953 L67.0338428,500.084925 L74.0005176,500.084925 L74.0005176,517.117767 L81.0009906,517.117767 L81.0009906,476.987514 L88.0000111,476.987514 L88.0000111,391.994117 L107.025989,391.994117 L107.025989,376.999977 L139.062491,376.999977 L139.062491,472.004626 L145.082855,472.004626 L145.082855,515.00008 L152,515.00008 L152,334.988889 L191,348 L191,475.015747 L200.057138,475.015747 L200.057138,284.903483 L222,246 L222,192 L225,203 L225,245.011903 L232.00001,245.011903 L232,225 L235,211 L235,254.416587 L253,292 L253,433.056726 L271.030992,433.056726 L271.030992,308.996216 L313,304 L313,415.040533 L330.000048,415.040533 L330.000048,389.980038 L348,386 L343,495 L350,495 L350,440.990742 L358.000005,440.990742 L358.000005,342.994898 L367.054823,342.994898 L367.054823,328.999893 L378,318 L388,330 L388,346.03122 L399.39358,346.03122 L399.39358,435.000871 L413.146077,435.000871 L413.146077,506.265523 L419.006019,506.265523 L419.006019,479.980741 L431.000015,479.980741 L426,239 L432,238 L432,201 L439,201 L438,166 L442.123106,166 L443,146 L448,146 L449,130 L482.015148,130 L486,146 L492.082763,146 L493,164 L496,165 L496,193 L500,194 L499,243 L504,244 L504,406.027775 L517.040564,406.027775 L513,500 L526,500 L526,462.986489 L538,463 L538,430 L548,430 L548,370 L566,353 L597,357 L612,375 L612,485.040901 L628.000052,485.040901 L624,410 L642.027756,410 L640,273 L660,255 L660,246 L672,237 L675,195 L679,236 L691,248 L691,260.041595 L709,275 L710,446 L718,446 L717,504 L724,504 L723,483 L733.049876,483 L733.049876,359.99999 L744.181146,359.99999 L744.181146,312.985161 L766,291 L786,311 L786,361.089919 L798,361 L796,485 L811.033296,485 L807,410 L824.029386,410 L824,400 L849,400 L849,407 L867.027756,407 L866,478 L876,479 L878,408 L895,408 L896,399 L921.019992,399 L920,407 L931.045361,407 L931.045361,493.000012 L963,493.000012" id="hk-skyline" sketch:type="MSShapeGroup"></path>
            </g>
        </g>
    </g>
</svg>