<?xml version="1.0" encoding="UTF-8" standalone="no"?>
<svg width="403px" height="326px" viewBox="0 0 403 326" version="1.1" xmlns="http://www.w3.org/2000/svg" xmlns:xlink="http://www.w3.org/1999/xlink" xmlns:sketch="http://www.bohemiancoding.com/sketch/ns">
    <title>wdi-logo</title>
    <description>Created with Sketch (http://www.bohemiancoding.com/sketch)</description>
    <defs>
        <linearGradient x1="42.9649203%" y1="50%" x2="85.8455882%" y2="50%" id="linearGradient-1">
            <stop stop-color="#7F0000" offset="0%"></stop>
            <stop stop-color="#EA2C3D" offset="100%"></stop>
        </linearGradient>
        <linearGradient x1="35.4970895%" y1="50%" x2="85.8455882%" y2="50%" id="linearGradient-2">
            <stop stop-color="#7F0000" offset="0%"></stop>
            <stop stop-color="#EA2C3D" offset="100%"></stop>
        </linearGradient>
        <linearGradient x1="95.2795252%" y1="50%" x2="4.90733225%" y2="46.2667406%" id="linearGradient-3">
            <stop stop-color="#A0051B" offset="0%"></stop>
            <stop stop-color="#EC2D3E" offset="48.8843149%"></stop>
            <stop stop-color="#A0041B" offset="100%"></stop>
        </linearGradient>
    </defs>
    <g id="Page-1" stroke="none" stroke-width="1" fill="none" fill-rule="evenodd" sketch:type="MSPage">
        <g id="960-Grid" sketch:type="MSArtboardGroup" transform="translate(-267.000000, -157.000000)">
            <g id="hero" sketch:type="MSLayerGroup" transform="translate(-2.000000, -28.000000)">
                <g id="wdi-logo" transform="translate(269.000000, 180.000000)">
                    <path d="M154.006981,47.9136591 C148.206908,49.8151253 142.574471,52.0865732 137.137575,54.7000994 L137.137575,54.7000994 C137.744771,55.2934364 138.281921,55.9786822 138.727241,56.75 C141.350594,61.2937801 139.79378,67.1038886 135.25,69.7272413 C130.70622,72.350594 124.896111,70.7937801 122.272759,66.25 C121.794491,65.4216169 121.455162,64.5511442 121.247541,63.6655658 C115.442166,67.4621941 109.937038,71.6798265 104.775515,76.2751045 C106.403239,76.6749775 107.9458,77.5107712 109.217514,78.7824856 C112.927495,82.4924665 112.927495,88.5075335 109.217514,92.2175144 C105.507533,95.9274954 99.4924665,95.9274954 95.7824856,92.2175144 C94.5107712,90.9458001 93.6749775,89.4032394 93.2751045,87.7755148 L93.2751045,87.7755148 C88.6798283,92.9370361 84.4621972,98.4421622 80.6655701,104.247535 L80.6655652,104.247541 C81.5511438,104.455162 82.4216167,104.794491 83.25,105.272759 C87.7937801,107.896111 89.350594,113.70622 86.7272413,118.25 C84.1038886,122.79378 78.2937801,124.350594 73.75,121.727241 C72.9786822,121.281921 72.2934364,120.744771 71.7000994,120.137575 C69.0865732,125.574471 66.8151253,131.206908 64.9136591,137.006981 C65.5914298,137.037159 66.2763861,137.140857 66.9587809,137.323705 C72.0267092,138.681652 75.0342426,143.890853 73.6762953,148.958781 C72.3183481,154.026709 67.1091473,157.034243 62.0412191,155.676295 C61.4366086,155.51429 60.8613234,155.297471 60.3192774,155.032618 L60.3192774,155.032618 C59.4708298,159.631984 58.8479926,164.310407 58.4626696,169.055983 L58.4626696,169.055983 C58.8033641,169.018985 59.1494649,169 59.5,169 C64.7467054,169 69,173.253295 69,178.5 C69,183.746705 64.7467054,188 59.5,188 C59.0567483,188 58.6205867,187.969643 58.1934809,187.910896 C58.5646574,195.00216 59.465401,201.953172 60.8569071,208.725126 C61.2374817,208.567684 61.6326549,208.433179 62.0412191,208.323705 C67.1091473,206.965757 72.3183481,209.973291 73.6762953,215.041219 C75.0342426,220.109147 72.0267092,225.318348 66.9587809,226.676295 C66.6065673,226.770671 66.2536714,226.843961 65.9014333,226.896939 L65.9014333,226.896939 C67.9393271,232.677192 70.3472697,238.282889 73.0968123,243.685582 L73.0968123,243.685582 C73.3071135,243.540514 73.5248911,243.402725 73.75,243.272759 C78.2937801,240.649406 84.1038886,242.20622 86.7272413,246.75 C89.350594,251.29378 87.7937801,257.103889 83.25,259.727241 C83.1098066,259.808182 82.9684076,259.885143 82.825934,259.95816 C86.2703063,264.919724 90.028411,269.647055 94.0715354,274.11144 C94.5083229,273.273146 95.0786382,272.486333 95.7824856,271.782486 C99.4924665,268.072505 105.507533,268.072505 109.217514,271.782486 C112.927495,275.492467 112.927495,281.507533 109.217514,285.217514 C108.586387,285.848641 107.888552,286.372404 107.146706,286.788801 L107.146706,286.788801 C111.778752,290.73023 116.671694,294.374236 121.796001,297.691288 L121.796001,297.691288 C121.935913,297.37262 122.094708,297.058393 122.272759,296.75 C124.896111,292.20622 130.70622,290.649406 135.25,293.272759 C139.79378,295.896111 141.350594,301.70622 138.727241,306.25 C138.604173,306.463161 138.474091,306.669747 138.337456,306.869637 C143.577316,309.327024 148.995026,311.468105 154.565997,313.268292 C156.222575,308.672553 161.154165,306.036312 165.958781,307.323705 C170.653675,308.581698 173.580329,313.144853 172.906121,317.838974 L172.906121,317.838974 C177.270751,318.615317 181.705591,319.188692 186.200535,319.548992 L186.200535,319.548992 C187.100353,315.238174 190.922018,312 195.5,312 C200.169814,312 204.052665,315.36939 204.850071,319.80969 C211.720234,319.45306 218.458889,318.599381 225.03076,317.283925 C224.653466,312.78977 227.531641,308.532042 232.041219,307.323705 C236.530216,306.120882 241.130052,308.343131 243.066103,312.388521 L243.066103,312.388521 C248.82839,310.398055 254.419544,308.040599 259.811622,305.344097 L259.811622,305.344097 C257.865666,300.960357 259.503193,295.724654 263.75,293.272759 C267.952192,290.846622 273.237472,291.995771 276.083455,295.776387 C280.662161,292.649066 285.044988,289.256067 289.209738,285.619588 C289.064235,285.49079 288.921737,285.356766 288.782486,285.217514 C285.072505,281.507533 285.072505,275.492467 288.782486,271.782486 C292.492467,268.072505 298.507533,268.072505 302.217514,271.782486 C302.356766,271.921737 302.49079,272.064235 302.619588,272.209738 L302.619588,272.209738 C306.256067,268.044988 309.649066,263.662161 312.776387,259.083455 L312.776387,259.083455 C308.995771,256.237472 307.846622,250.952192 310.272759,246.75 C312.724654,242.503193 317.960357,240.865666 322.344097,242.811622 C325.040599,237.419544 327.398055,231.82839 329.388521,226.066103 C325.343131,224.130052 323.120882,219.530216 324.323705,215.041219 C325.532042,210.531641 329.78977,207.653467 334.283925,208.03076 L334.283924,208.030764 C335.59938,201.458892 336.45306,194.720236 336.80969,187.850071 L336.80969,187.850071 C332.36939,187.052665 329,183.169814 329,178.5 C329,173.922018 332.238174,170.100353 336.548992,169.200535 C336.188692,164.705591 335.615317,160.270751 334.838974,155.906121 C330.144853,156.580329 325.581698,153.653675 324.323705,148.958781 C323.036312,144.154165 325.672553,139.222575 330.268292,137.565997 L330.268292,137.565997 C328.468105,131.995026 326.327024,126.577316 323.869637,121.337456 L323.869637,121.337456 C323.669747,121.474091 323.463161,121.604173 323.25,121.727241 C318.70622,124.350594 312.896111,122.79378 310.272759,118.25 C307.649406,113.70622 309.20622,107.896111 313.75,105.272759 C314.058393,105.094708 314.37262,104.935913 314.691288,104.796001 C311.374236,99.6716943 307.73023,94.7787524 303.788801,90.1467058 C303.372404,90.8885525 302.848641,91.5863874 302.217514,92.2175144 C298.507533,95.9274954 292.492467,95.9274954 288.782486,92.2175144 C285.072505,88.5075335 285.072505,82.4924665 288.782486,78.7824856 C289.486333,78.0786384 290.273146,77.5083232 291.111445,77.0715398 L291.111445,77.0715398 C286.647059,73.0284137 281.919726,69.2703075 276.95816,65.825934 L276.95816,65.825934 C276.885143,65.9684076 276.808182,66.1098066 276.727241,66.25 C274.103889,70.7937801 268.29378,72.350594 263.75,69.7272413 C259.20622,67.1038886 257.649406,61.2937801 260.272759,56.75 C260.402725,56.5248911 260.540514,56.3071135 260.685582,56.0968123 C255.282889,53.3472697 249.677192,50.9393271 243.896939,48.9014333 C243.843961,49.2536714 243.770671,49.6065673 243.676295,49.9587809 C242.318348,55.0267092 237.109147,58.0342426 232.041219,56.6762953 C226.973291,55.3183481 223.965757,50.1091473 225.323705,45.0412191 C225.433179,44.6326549 225.567684,44.2374817 225.725126,43.8569071 L225.725126,43.8569071 C218.953172,42.465401 212.00216,41.5646574 204.910896,41.1934809 L204.910896,41.1934809 C204.969643,41.6205867 205,42.0567483 205,42.5 C205,47.7467054 200.746705,52 195.5,52 C190.253295,52 186,47.7467054 186,42.5 C186,42.1494649 186.018985,41.8033641 186.055983,41.4626696 C181.310407,41.8479926 176.631984,42.4708298 172.032618,43.3192774 C172.297471,43.8613234 172.51429,44.4366086 172.676295,45.0412191 C174.034243,50.1091473 171.026709,55.3183481 165.958781,56.6762953 C160.890853,58.0342426 155.681652,55.0267092 154.323705,49.9587809 C154.140857,49.2763861 154.037159,48.5914298 154.006981,47.9136591 Z" id="background-copy" stroke="#942615" stroke-width="3" fill="#C1162A" sketch:type="MSShapeGroup"></path>
                    <text id="WDI" sketch:type="MSTextLayer" font-family="PF Din Text Comp Pro" font-size="129" font-weight="bold" sketch:alignment="middle" fill="#FFFFFF">
                        <tspan x="112.7795" y="215">WDI</tspan>
                    </text>
                    <path d="M50,175.000007 C50,175.000007 48.9999994,30.4012445 197,33.0122324 C345,35.6232291 353,191 353,191" id="Line" sketch:type="MSShapeGroup"></path>
                    <path d="M43.9456281,85.7116274 L45.6242563,86.7736478 C44.8321267,88.216214 44.4783371,89.2279083 44.5628769,89.8087612 C44.6474166,90.3896141 45.249223,91.0340394 46.3683141,91.7420565 L52.6954511,95.7450563 L58.7816446,86.1252254 L52.4545076,82.1222257 C51.3354165,81.4142086 50.4970406,81.1437047 49.9393549,81.3107059 C49.3816691,81.4777072 48.6206889,82.2280168 47.6563914,83.5616573 L45.9777632,82.4996369 L52.666449,71.9275073 L54.3450772,72.9895277 C53.5393319,74.4536149 53.1814246,75.4777715 53.2713446,76.0620283 C53.3612646,76.6462851 53.9603809,77.2890085 55.0687115,77.9902178 L70.2570686,87.5994595 C71.3653992,88.3006688 72.2027869,88.5667806 72.7692569,88.3978031 C73.3357268,88.2288255 74.1079068,87.4667674 75.08582,86.111606 L76.7644482,87.1736263 L70.0757624,97.7457559 L68.3971342,96.6837355 C69.1892638,95.2411693 69.5413514,94.2321651 69.4534078,93.6566924 C69.3654641,93.0812198 68.7619558,92.4394845 67.6428647,91.7314674 L60.686242,87.33021 L54.6000485,96.9500409 L61.5566712,101.351298 C62.6757623,102.059315 63.5158401,102.327129 64.0769298,102.154748 C64.6380195,101.982366 65.4007016,101.229367 66.3649991,99.895726 L68.0436273,100.957746 L61.3549415,111.529876 L59.6763133,110.467856 C60.4752507,109.014529 60.8297541,107.995752 60.7398341,107.411496 C60.6499141,106.827239 60.0507978,106.184515 58.9424673,105.483306 L43.7541101,95.8740644 C42.6457796,95.1728552 41.8083918,94.9067433 41.2419219,95.0757209 C40.6754519,95.2446984 39.9066758,96.0013764 38.9355705,97.3457773 L37.2569423,96.283757 L43.9456281,85.7116274 Z M95.4609965,66.1783134 C94.3565201,67.4621122 93.1034428,68.4500659 91.7017272,69.1422041 C90.3000116,69.8343424 88.7669821,70.2203178 87.102593,70.300142 C85.1412399,70.3932345 83.2127656,70.0820704 81.3171124,69.3666403 C79.4214592,68.6512103 77.6000976,67.5419696 75.852973,66.0388851 C74.1058484,64.5358006 72.7398164,62.9070652 71.7548361,61.1526299 C70.7698558,59.3981947 70.1762833,57.5353949 69.9741007,55.5641745 C69.8154926,53.9327881 69.9751201,52.3610496 70.4529879,50.848912 C70.9308557,49.3367744 71.7137117,47.9484797 72.8015795,46.6839862 C73.8894473,45.4194927 75.1452747,44.4381043 76.5690995,43.7397914 C77.9929243,43.0414786 79.5190514,42.6537641 81.1475266,42.5766365 C83.1268367,42.4821957 85.057387,42.7909467 86.9392354,43.5028987 C88.8210839,44.2148508 90.6355431,45.3223524 92.3826677,46.825437 C94.139445,48.3368258 95.5172055,49.9714523 96.5159906,51.7293656 C97.5147757,53.4872788 98.1097501,55.3386872 98.3009318,57.2836463 C98.4691925,58.923337 98.3140542,60.4947384 97.8355123,61.9978976 C97.3569703,63.5010567 96.565473,64.8945147 95.4609965,66.1783134 Z M94.7272359,59.7652859 C94.1232886,57.3602453 92.3456835,54.5915056 89.3943673,51.4589837 C86.4517828,48.3357297 83.80248,46.4057572 81.4463794,45.6690082 C79.0902788,44.9322593 77.0364507,45.389024 75.2848335,47.0393162 C73.5332162,48.6896084 72.957475,50.7059279 73.5575926,53.0883351 C74.1577101,55.4707424 75.9334003,58.2281655 78.8847165,61.3606874 C81.8534961,64.5117448 84.5112624,66.4599846 86.8580952,67.2054653 C89.204928,67.950946 91.2541223,67.498547 93.0057395,65.8482548 C94.7573568,64.1979626 95.3311831,62.1703266 94.7272359,59.7652859 Z M131.515341,33.9567817 L124.363198,20.1523602 C123.754003,18.9765477 123.163697,18.3215717 122.592262,18.1874125 C122.020826,18.0532532 120.982464,18.3187639 119.477143,18.9839524 L118.563356,17.2202425 L127.44974,12.61616 L128.363527,14.3798699 C126.940623,15.2318103 126.120659,15.9326935 125.903611,16.4825405 C125.686563,17.0323876 125.879704,17.8895515 126.483041,19.0540581 L137.395771,40.116824 L135.055464,41.3293496 L109.550416,26.6868553 L118.284115,43.5438516 C118.887452,44.7083582 119.476294,45.3605078 120.050658,45.50032 C120.625022,45.6401321 121.676154,45.3715904 123.204087,44.6946865 L124.117874,46.4583964 L115.214531,51.0712654 L114.300744,49.3075555 C115.723648,48.4556151 116.54225,47.7590227 116.756574,47.2177574 C116.970898,46.6764922 116.773466,45.8179662 116.164271,44.6421537 L107.896253,28.6839712 C107.287058,27.5081587 106.699578,26.8517183 106.133796,26.7146302 C105.568014,26.5775421 104.526825,26.8445172 103.010198,27.5155634 L102.096411,25.7518535 L110.016146,21.6485967 L131.515341,33.9567817 Z M171.019838,33.3786516 C170.867009,32.5956935 170.665769,31.9967632 170.416111,31.5818425 C170.166454,31.1669219 169.889011,30.9668903 169.583775,30.9817416 C169.418439,30.989786 169.027723,31.212766 168.411615,31.650688 C168.091462,31.8829861 167.832738,32.0676737 167.635435,32.2047564 C166.906721,32.6864022 166.106143,33.0663661 165.233677,33.3446594 C164.361211,33.6229527 163.454419,33.7849927 162.513273,33.8307843 C160.809037,33.9137041 159.230182,33.6909432 157.776662,33.1624948 C156.323142,32.6340463 155.001668,31.8059759 153.812201,30.6782585 C152.394149,29.3066973 151.285335,27.6747106 150.485727,25.7822497 C149.686119,23.8897887 149.230629,21.7989532 149.119245,19.5096804 C149.008478,17.2331257 149.250536,15.1338472 149.845426,13.2117816 C150.440315,11.2897161 151.383206,9.57702565 152.674127,8.07365893 C153.759976,6.80973918 154.996761,5.83170014 156.384517,5.13951246 C157.772273,4.44732479 159.267374,4.06225203 160.869865,3.98428262 C161.429465,3.95705521 162.033638,3.99458657 162.682404,4.09687784 C163.33117,4.19916911 164.211084,4.40175765 165.322175,4.70464954 C165.632361,4.79154369 166.05979,4.93009833 166.604473,5.12031762 C167.485399,5.40891163 168.103907,5.54454334 168.460016,5.5272168 C168.841561,5.50865266 169.145727,5.34087627 169.372521,5.0238826 C169.599315,4.70688893 169.748112,4.22796951 169.818917,3.58710995 L171.76479,3.49243329 L172.548977,13.3214059 L170.488642,13.4216518 C169.615127,10.927243 168.404757,9.04204862 166.857495,7.76601206 C165.310234,6.4899755 163.512816,5.90177983 161.465189,6.00140741 C158.908834,6.12578718 157.065214,7.27358101 155.934271,9.44482334 C154.803329,11.6160657 154.344918,14.9018831 154.559025,19.3023742 C154.762612,23.4866562 155.572906,26.6470041 156.989932,28.7835127 C158.406958,30.9200213 160.355465,31.9279271 162.83551,31.8072601 C164.387128,31.7317659 165.671625,31.210337 166.68904,30.2429577 C167.706454,29.2755783 168.182667,28.1242014 168.117692,26.7887922 L168.022087,24.8238429 C167.957732,23.5011519 167.696887,22.6597207 167.239545,22.299524 C166.782204,21.9393273 165.724392,21.7485814 164.066078,21.7272806 L163.969545,19.7432541 L176.083553,19.1538454 L176.180086,21.1378719 C174.647993,21.3526473 173.678368,21.6643476 173.271182,22.0729821 C172.863997,22.4816166 172.691347,23.3218304 172.753227,24.5936486 L173.17556,33.2737647 L171.019838,33.3786516 Z M222.353218,27.565577 C222.047629,28.854091 222.067576,29.7355994 222.41306,30.2101286 C222.758544,30.6846578 223.718644,31.1609973 225.293391,31.6391617 L224.835009,33.571923 L212.66233,30.6850034 L213.120711,28.752242 C214.75486,29.0351117 215.833546,29.039027 216.3568,28.7639879 C216.880055,28.4889488 217.293001,27.7133786 217.595651,26.4372542 L221.743119,8.94948042 C222.04577,7.67335594 222.025088,6.7949449 221.681073,6.31422095 C221.337059,5.83349699 220.371498,5.35259089 218.784362,4.87148823 L219.242743,2.93872684 L231.415423,5.82564653 L230.957042,7.75840792 C229.335282,7.47847655 228.263526,7.4729331 227.741741,7.7417774 C227.219956,8.01062171 226.806275,8.7892892 226.500686,10.0778032 L224.460008,18.6823083 L235.782084,12.1612382 C236.460087,11.7854923 236.926688,11.4872084 237.181901,11.2663774 C237.437113,11.0455464 237.591163,10.8236282 237.644053,10.6006162 C237.743957,10.1793712 237.608424,9.82661486 237.237449,9.54233659 C236.866474,9.25805831 236.191609,8.99985801 235.212834,8.76772794 L234.841149,8.67957772 L235.29953,6.74681633 L246.747425,9.46184309 L246.289044,11.3946045 C246.227096,11.3799127 246.141839,11.3531498 246.033272,11.3143151 C245.924704,11.2754803 245.839448,11.2487175 245.7775,11.2340257 C244.897841,11.0254025 243.952023,11.0268261 242.940017,11.2382968 C241.928012,11.4497674 240.88376,11.8662351 239.807232,12.4877122 L231.833137,16.9761477 L237.575622,31.3328174 C237.998867,32.3623322 238.50156,33.1947526 239.083718,33.8301037 C239.665875,34.4654548 240.408965,35.0015603 241.313009,35.4384361 L240.854628,37.3711975 L228.719117,34.4930928 L229.177498,32.5603314 C229.254773,32.565572 229.361552,32.584353 229.497837,32.6166749 C231.491284,32.9847569 232.554104,32.8900343 232.68633,32.3325042 C232.727467,32.1590504 232.729648,31.956731 232.692873,31.72554 C232.656098,31.4943491 232.572705,31.239019 232.44269,30.959542 L227.75728,19.3465247 L223.781251,21.5442819 L222.353218,27.565577 Z M263.126947,46.9630106 C261.523471,46.4181488 260.1389,45.6249171 258.97319,44.5832916 C257.807481,43.5416661 256.876704,42.263851 256.180833,40.7498081 C255.361706,38.9652623 254.929846,37.0601815 254.88524,35.0345084 C254.840634,33.0088352 255.189078,30.9049436 255.930582,28.7227704 C256.672085,26.5405972 257.67252,24.6649766 258.931916,23.0958521 C260.191311,21.5267277 261.697457,20.2801822 263.450399,19.3561784 C264.904395,18.599558 266.421957,18.1604137 268.003131,18.0387324 C269.584305,17.917051 271.16455,18.1245414 272.743913,18.6612097 C274.323276,19.197878 275.702785,19.9961136 276.882482,21.0559404 C278.062179,22.1157671 278.99199,23.38653 279.671942,24.8682672 C280.499029,26.6689658 280.933903,28.5750708 280.976577,30.5866394 C281.019252,32.598208 280.669842,34.6950474 279.928339,36.8772206 C279.182738,39.07145 278.181221,40.9601508 276.923757,42.5433799 C275.666292,44.1266089 274.171237,45.3701988 272.438545,46.2741869 C270.980452,47.0428635 269.46488,47.4860459 267.891782,47.6037475 C266.318685,47.7214491 264.730422,47.5078723 263.126947,46.9630106 Z M261.909539,44.261113 C264.038985,45.3823127 266.143097,45.2670101 268.22194,43.9152018 C270.300783,42.5633935 272.342728,39.9834206 274.347836,36.1752058 C276.347012,32.3782579 277.312685,29.2459942 277.244883,26.7783208 C277.177081,24.3106474 276.078474,22.5162377 273.949028,21.395038 C271.819583,20.2738383 269.725552,20.3836569 267.666875,21.7244972 C265.608198,23.0653374 263.576335,25.6398263 261.571227,29.4480411 C259.554254,33.2787898 258.574049,36.4249875 258.630584,38.8867286 C258.687119,41.3484697 259.780093,43.1399133 261.909539,44.261113 Z M306.986453,66.4953093 L316.975088,54.5813523 C317.825885,53.566563 318.203232,52.7696535 318.107138,52.1905999 C318.011045,51.6115463 317.366366,50.7553441 316.173083,49.6219677 L317.449272,48.0997914 L325.118699,54.5298221 L323.84251,56.0519984 C322.508577,55.0665627 321.546112,54.5794925 320.955083,54.590773 C320.364055,54.6020535 319.647244,55.110202 318.804627,56.1152337 L303.563982,74.2935317 L301.544171,72.6001267 L305.243135,43.4243188 L293.04571,57.9728118 C292.203094,58.9778435 291.827793,59.7723136 291.919796,60.356246 C292.011799,60.9401785 292.66419,61.8070006 293.876988,62.9567384 L292.600799,64.4789148 L284.916736,58.0366131 L286.192925,56.5144367 C287.526858,57.4998724 288.484839,57.9873369 289.066898,57.9768448 C289.648957,57.9663527 290.365375,57.4537197 291.216172,56.4389304 L302.76323,42.6661619 C303.614028,41.6513726 303.993813,40.8565083 303.902599,40.281545 C303.811384,39.7065818 303.164266,38.8483345 301.961225,37.7067773 L303.237415,36.184601 L310.072572,41.9151818 L306.986453,66.4953093 Z M326.547881,104.782665 C327.134409,104.241957 327.538856,103.756531 327.761232,103.326372 C327.983609,102.896214 328.008443,102.555083 327.835734,102.302969 C327.742183,102.166407 327.347432,101.950651 326.65147,101.655692 C326.285788,101.504905 325.992858,101.381456 325.772671,101.285342 C324.980428,100.91743 324.237081,100.435006 323.542606,99.8380569 C322.848132,99.2411074 322.234644,98.5539675 321.702124,97.7766167 C320.737831,96.3689814 320.099568,94.9078091 319.787315,93.3930561 C319.475061,91.878303 319.487174,90.318865 319.823651,88.7146951 C320.247888,86.7880204 321.056034,84.9880902 322.248112,83.3148506 C323.440191,81.6416111 324.981634,80.1573543 326.872487,78.8620357 C328.752836,77.5739134 330.667256,76.6791748 332.615806,76.177793 C334.564355,75.6764112 336.517116,75.5811393 338.474147,75.8919743 C340.119756,76.1537607 341.601094,76.6939778 342.918204,77.5126419 C344.235314,78.3313061 345.347214,79.4024207 346.253937,80.7260181 C346.570571,81.1882267 346.855438,81.7223478 347.108547,82.3283975 C347.361656,82.9344471 347.650577,83.78991 347.975318,84.8948117 C348.06399,85.2044952 348.170154,85.6410978 348.293814,86.2046326 C348.510034,87.1060565 348.718887,87.7038259 348.920381,87.9979586 C349.136267,88.3131009 349.438627,88.4841099 349.827469,88.5109908 C350.216311,88.5378718 350.702128,88.4134277 351.284935,88.1376549 L352.38595,89.7448723 L344.428029,95.5668267 L343.262248,93.8650672 C344.928115,91.8132408 345.898606,89.7940574 346.173749,87.8074564 C346.448893,85.8208554 346.007176,83.9819508 344.848586,82.2906875 C343.402147,80.1792346 341.458046,79.2113285 339.016227,79.3869402 C336.574407,79.5625518 333.536222,80.8952827 329.901582,83.3851728 C326.445522,85.7527273 324.179471,88.099936 323.103361,90.4268694 C322.027251,92.7538027 322.190824,94.9414488 323.594086,96.9898733 C324.472024,98.2714517 325.589589,99.0917378 326.946814,99.4507563 C328.30404,99.8097747 329.534133,99.6114857 330.63713,98.8558832 L332.260105,97.7440737 C333.352598,96.9956674 333.932272,96.3323242 333.999145,95.7540242 C334.066018,95.1757243 333.673725,94.1749963 332.822255,92.7518102 L334.460987,91.6292064 L341.315346,101.634922 L339.676615,102.757526 C338.690321,101.565611 337.916452,100.903451 337.354984,100.771027 C336.793516,100.638602 335.987557,100.932196 334.937083,101.651818 L327.767633,106.563209 L326.547881,104.782665 Z" id="HONG-KONG" fill="#000000" sketch:type="MSShapeGroup"></path>
                    <g id="banner" transform="translate(0.000000, 239.000000)">
                        <path d="M365.239583,26.7377049 C335.749021,27.9883694 278,11 278,11 L278,70.0163934 C278,70.0163934 340.5,83.1311467 358.729167,85.7540984 C376.958333,88.3770492 403,91 403,91 C403,91 380.217734,66.0819672 380.864583,56.2459016 C381.511433,46.4098361 400.395833,21.4918033 400.395833,21.4918033 C400.395833,21.4918033 376.98166,26.2397355 365.239583,26.7377049 Z" id="banner-right" stroke="#970015" stroke-width="2" fill="url(#linearGradient-1)" sketch:type="MSShapeGroup"></path>
                        <path d="M78.8645833,26.9344262 C52.2051149,28.200724 0,11 0,11 L0,70.7540984 C0,70.7540984 56.5000004,84.0327861 72.9791667,86.6885246 C89.4583333,89.3442623 113,92 113,92 C113,92 92.4048314,66.7704918 92.9895833,56.8114754 C93.5743358,46.852459 110.645833,21.6229508 110.645833,21.6229508 C110.645833,21.6229508 89.4794204,26.4302322 78.8645833,26.9344262 Z" id="banner-left" stroke="#970015" stroke-width="2" fill="url(#linearGradient-2)" sketch:type="MSShapeGroup" transform="translate(56.500000, 51.500000) scale(-1, 1) translate(-56.500000, -51.500000) "></path>
                        <path d="M194.314136,0 C80.2251309,-4.74806686e-06 58,12.5806452 58,12.5806452 L58,78 C58,78 121.172997,66.6774224 194.314136,66.6774194 C267.455276,66.6774163 341,78 341,78 L341,12.5806452 C341,12.5806452 308.403141,4.80973002e-06 194.314136,0 Z" stroke="#970015" stroke-width="2" fill="url(#linearGradient-3)" sketch:type="MSShapeGroup"></path>
                        <text id="name" sketch:type="MSTextLayer" font-family="PF Din Text Comp Pro" font-size="51.3" font-weight="normal" sketch:alignment="middle" fill="#FFFFFF">
                            <tspan x="122.13925" y="52">CLASS 2.0 </tspan>
                        </text>
                    </g>
                </g>
            </g>
        </g>
    </g>
</svg>