<?xml version="1.0" encoding="UTF-8" standalone="no"?>
<svg width="403px" height="326px" viewBox="0 0 403 326" version="1.1" xmlns="http://www.w3.org/2000/svg" xmlns:xlink="http://www.w3.org/1999/xlink" xmlns:sketch="http://www.bohemiancoding.com/sketch/ns">
    <title>wdi-logo</title>
    <description>Created with Sketch (http://www.bohemiancoding.com/sketch)</description>
    <defs>
        <linearGradient x1="42.9649203%" y1="50%" x2="85.8455882%" y2="50%" id="linearGradient-1">
            <stop stop-color="#7F0000" offset="0%"></stop>
            <stop stop-color="#EA2C3D" offset="100%"></stop>
        </linearGradient>
        <linearGradient x1="35.4970895%" y1="50%" x2="85.8455882%" y2="50%" id="linearGradient-2">
            <stop stop-color="#7F0000" offset="0%"></stop>
            <stop stop-color="#EA2C3D" offset="100%"></stop>
        </linearGradient>
        <linearGradient x1="95.2795252%" y1="50%" x2="4.90733225%" y2="46.2667406%" id="linearGradient-3">
            <stop stop-color="#A0051B" offset="0%"></stop>
            <stop stop-color="#EC2D3E" offset="48.8843149%"></stop>
            <stop stop-color="#A0041B" offset="100%"></stop>
        </linearGradient>
    </defs>
    <g id="Page-1" stroke="none" stroke-width="1" fill="none" fill-rule="evenodd" sketch:type="MSPage">
        <g id="960-Grid" sketch:type="MSArtboardGroup" transform="translate(-267.000000, -157.000000)">
            <g id="hero" sketch:type="MSLayerGroup" transform="translate(-2.000000, -28.000000)">
                <g id="wdi-logo" transform="translate(269.000000, 180.000000)" sketch:type="MSShapeGroup">
                    <path d="M154.006981,47.9136591 C148.206908,49.8151253 142.574471,52.0865732 137.137575,54.7000994 L137.137575,54.7000994 C137.744771,55.2934364 138.281921,55.9786822 138.727241,56.75 C141.350594,61.2937801 139.79378,67.1038886 135.25,69.7272413 C130.70622,72.350594 124.896111,70.7937801 122.272759,66.25 C121.794491,65.4216169 121.455162,64.5511442 121.247541,63.6655658 C115.442166,67.4621941 109.937038,71.6798265 104.775515,76.2751045 C106.403239,76.6749775 107.9458,77.5107712 109.217514,78.7824856 C112.927495,82.4924665 112.927495,88.5075335 109.217514,92.2175144 C105.507533,95.9274954 99.4924665,95.9274954 95.7824856,92.2175144 C94.5107712,90.9458001 93.6749775,89.4032394 93.2751045,87.7755148 L93.2751045,87.7755148 C88.6798283,92.9370361 84.4621972,98.4421622 80.6655701,104.247535 L80.6655652,104.247541 C81.5511438,104.455162 82.4216167,104.794491 83.25,105.272759 C87.7937801,107.896111 89.350594,113.70622 86.7272413,118.25 C84.1038886,122.79378 78.2937801,124.350594 73.75,121.727241 C72.9786822,121.281921 72.2934364,120.744771 71.7000994,120.137575 C69.0865732,125.574471 66.8151253,131.206908 64.9136591,137.006981 C65.5914298,137.037159 66.2763861,137.140857 66.9587809,137.323705 C72.0267092,138.681652 75.0342426,143.890853 73.6762953,148.958781 C72.3183481,154.026709 67.1091473,157.034243 62.0412191,155.676295 C61.4366086,155.51429 60.8613234,155.297471 60.3192774,155.032618 L60.3192774,155.032618 C59.4708298,159.631984 58.8479926,164.310407 58.4626696,169.055983 L58.4626696,169.055983 C58.8033641,169.018985 59.1494649,169 59.5,169 C64.7467054,169 69,173.253295 69,178.5 C69,183.746705 64.7467054,188 59.5,188 C59.0567483,188 58.6205867,187.969643 58.1934809,187.910896 C58.5646574,195.00216 59.465401,201.953172 60.8569071,208.725126 C61.2374817,208.567684 61.6326549,208.433179 62.0412191,208.323705 C67.1091473,206.965757 72.3183481,209.973291 73.6762953,215.041219 C75.0342426,220.109147 72.0267092,225.318348 66.9587809,226.676295 C66.6065673,226.770671 66.2536714,226.843961 65.9014333,226.896939 L65.9014333,226.896939 C67.9393271,232.677192 70.3472697,238.282889 73.0968123,243.685582 L73.0968123,243.685582 C73.3071135,243.540514 73.5248911,243.402725 73.75,243.272759 C78.2937801,240.649406 84.1038886,242.20622 86.7272413,246.75 C89.350594,251.29378 87.7937801,257.103889 83.25,259.727241 C83.1098066,259.808182 82.9684076,259.885143 82.825934,259.95816 C86.2703063,264.919724 90.028411,269.647055 94.0715354,274.11144 C94.5083229,273.273146 95.0786382,272.486333 95.7824856,271.782486 C99.4924665,268.072505 105.507533,268.072505 109.217514,271.782486 C112.927495,275.492467 112.927495,281.507533 109.217514,285.217514 C108.586387,285.848641 107.888552,286.372404 107.146706,286.788801 L107.146706,286.788801 C111.778752,290.73023 116.671694,294.374236 121.796001,297.691288 L121.796001,297.691288 C121.935913,297.37262 122.094708,297.058393 122.272759,296.75 C124.896111,292.20622 130.70622,290.649406 135.25,293.272759 C139.79378,295.896111 141.350594,301.70622 138.727241,306.25 C138.604173,306.463161 138.474091,306.669747 138.337456,306.869637 C143.577316,309.327024 148.995026,311.468105 154.565997,313.268292 C156.222575,308.672553 161.154165,306.036312 165.958781,307.323705 C170.653675,308.581698 173.580329,313.144853 172.906121,317.838974 L172.906121,317.838974 C177.270751,318.615317 181.705591,319.188692 186.200535,319.548992 L186.200535,319.548992 C187.100353,315.238174 190.922018,312 195.5,312 C200.169814,312 204.052665,315.36939 204.850071,319.80969 C211.720234,319.45306 218.458889,318.599381 225.03076,317.283925 C224.653466,312.78977 227.531641,308.532042 232.041219,307.323705 C236.530216,306.120882 241.130052,308.343131 243.066103,312.388521 L243.066103,312.388521 C248.82839,310.398055 254.419544,308.040599 259.811622,305.344097 L259.811622,305.344097 C257.865666,300.960357 259.503193,295.724654 263.75,293.272759 C267.952192,290.846622 273.237472,291.995771 276.083455,295.776387 C280.662161,292.649066 285.044988,289.256067 289.209738,285.619588 C289.064235,285.49079 288.921737,285.356766 288.782486,285.217514 C285.072505,281.507533 285.072505,275.492467 288.782486,271.782486 C292.492467,268.072505 298.507533,268.072505 302.217514,271.782486 C302.356766,271.921737 302.49079,272.064235 302.619588,272.209738 L302.619588,272.209738 C306.256067,268.044988 309.649066,263.662161 312.776387,259.083455 L312.776387,259.083455 C308.995771,256.237472 307.846622,250.952192 310.272759,246.75 C312.724654,242.503193 317.960357,240.865666 322.344097,242.811622 C325.040599,237.419544 327.398055,231.82839 329.388521,226.066103 C325.343131,224.130052 323.120882,219.530216 324.323705,215.041219 C325.532042,210.531641 329.78977,207.653467 334.283925,208.03076 L334.283924,208.030764 C335.59938,201.458892 336.45306,194.720236 336.80969,187.850071 L336.80969,187.850071 C332.36939,187.052665 329,183.169814 329,178.5 C329,173.922018 332.238174,170.100353 336.548992,169.200535 C336.188692,164.705591 335.615317,160.270751 334.838974,155.906121 C330.144853,156.580329 325.581698,153.653675 324.323705,148.958781 C323.036312,144.154165 325.672553,139.222575 330.268292,137.565997 L330.268292,137.565997 C328.468105,131.995026 326.327024,126.577316 323.869637,121.337456 L323.869637,121.337456 C323.669747,121.474091 323.463161,121.604173 323.25,121.727241 C318.70622,124.350594 312.896111,122.79378 310.272759,118.25 C307.649406,113.70622 309.20622,107.896111 313.75,105.272759 C314.058393,105.094708 314.37262,104.935913 314.691288,104.796001 C311.374236,99.6716943 307.73023,94.7787524 303.788801,90.1467058 C303.372404,90.8885525 302.848641,91.5863874 302.217514,92.2175144 C298.507533,95.9274954 292.492467,95.9274954 288.782486,92.2175144 C285.072505,88.5075335 285.072505,82.4924665 288.782486,78.7824856 C289.486333,78.0786384 290.273146,77.5083232 291.111445,77.0715398 L291.111445,77.0715398 C286.647059,73.0284137 281.919726,69.2703075 276.95816,65.825934 L276.95816,65.825934 C276.885143,65.9684076 276.808182,66.1098066 276.727241,66.25 C274.103889,70.7937801 268.29378,72.350594 263.75,69.7272413 C259.20622,67.1038886 257.649406,61.2937801 260.272759,56.75 C260.402725,56.5248911 260.540514,56.3071135 260.685582,56.0968123 C255.282889,53.3472697 249.677192,50.9393271 243.896939,48.9014333 C243.843961,49.2536714 243.770671,49.6065673 243.676295,49.9587809 C242.318348,55.0267092 237.109147,58.0342426 232.041219,56.6762953 C226.973291,55.3183481 223.965757,50.1091473 225.323705,45.0412191 C225.433179,44.6326549 225.567684,44.2374817 225.725126,43.8569071 L225.725126,43.8569071 C218.953172,42.465401 212.00216,41.5646574 204.910896,41.1934809 L204.910896,41.1934809 C204.969643,41.6205867 205,42.0567483 205,42.5 C205,47.7467054 200.746705,52 195.5,52 C190.253295,52 186,47.7467054 186,42.5 C186,42.1494649 186.018985,41.8033641 186.055983,41.4626696 C181.310407,41.8479926 176.631984,42.4708298 172.032618,43.3192774 C172.297471,43.8613234 172.51429,44.4366086 172.676295,45.0412191 C174.034243,50.1091473 171.026709,55.3183481 165.958781,56.6762953 C160.890853,58.0342426 155.681652,55.0267092 154.323705,49.9587809 C154.140857,49.2763861 154.037159,48.5914298 154.006981,47.9136591 Z" id="background-copy" stroke="#942615" stroke-width="3" fill="#C1162A"></path>
                    <path d="M50,175.000007 C50,175.000007 48.9999994,30.4012445 197,33.0122324 C345,35.6232291 353,191 353,191" id="Line"></path>
                    <path d="M43.9456281,85.7116274 L45.6242563,86.7736478 C44.8321267,88.216214 44.4783371,89.2279083 44.5628769,89.8087612 C44.6474166,90.3896141 45.249223,91.0340394 46.3683141,91.7420565 L52.6954511,95.7450563 L58.7816446,86.1252254 L52.4545076,82.1222257 C51.3354165,81.4142086 50.4970406,81.1437047 49.9393549,81.3107059 C49.3816691,81.4777072 48.6206889,82.2280168 47.6563914,83.5616573 L45.9777632,82.4996369 L52.666449,71.9275073 L54.3450772,72.9895277 C53.5393319,74.4536149 53.1814246,75.4777715 53.2713446,76.0620283 C53.3612646,76.6462851 53.9603809,77.2890085 55.0687115,77.9902178 L70.2570686,87.5994595 C71.3653992,88.3006688 72.2027869,88.5667806 72.7692569,88.3978031 C73.3357268,88.2288255 74.1079068,87.4667674 75.08582,86.111606 L76.7644482,87.1736263 L70.0757624,97.7457559 L68.3971342,96.6837355 C69.1892638,95.2411693 69.5413514,94.2321651 69.4534078,93.6566924 C69.3654641,93.0812198 68.7619558,92.4394845 67.6428647,91.7314674 L60.686242,87.33021 L54.6000485,96.9500409 L61.5566712,101.351298 C62.6757623,102.059315 63.5158401,102.327129 64.0769298,102.154748 C64.6380195,101.982366 65.4007016,101.229367 66.3649991,99.895726 L68.0436273,100.957746 L61.3549415,111.529876 L59.6763133,110.467856 C60.4752507,109.014529 60.8297541,107.995752 60.7398341,107.411496 C60.6499141,106.827239 60.0507978,106.184515 58.9424673,105.483306 L43.7541101,95.8740644 C42.6457796,95.1728552 41.8083918,94.9067433 41.2419219,95.0757209 C40.6754519,95.2446984 39.9066758,96.0013764 38.9355705,97.3457773 L37.2569423,96.283757 L43.9456281,85.7116274 Z M95.4609965,66.1783134 C94.3565201,67.4621122 93.1034428,68.4500659 91.7017272,69.1422041 C90.3000116,69.8343424 88.7669821,70.2203178 87.102593,70.300142 C85.1412399,70.3932345 83.2127656,70.0820704 81.3171124,69.3666403 C79.4214592,68.6512103 77.6000976,67.5419696 75.852973,66.0388851 C74.1058484,64.5358006 72.7398164,62.9070652 71.7548361,61.1526299 C70.7698558,59.3981947 70.1762833,57.5353949 69.9741007,55.5641745 C69.8154926,53.9327881 69.9751201,52.3610496 70.4529879,50.848912 C70.9308557,49.3367744 71.7137117,47.9484797 72.8015795,46.6839862 C73.8894473,45.4194927 75.1452747,44.4381043 76.5690995,43.7397914 C77.9929243,43.0414786 79.5190514,42.6537641 81.1475266,42.5766365 C83.1268367,42.4821957 85.057387,42.7909467 86.9392354,43.5028987 C88.8210839,44.2148508 90.6355431,45.3223524 92.3826677,46.825437 C94.139445,48.3368258 95.5172055,49.9714523 96.5159906,51.7293656 C97.5147757,53.4872788 98.1097501,55.3386872 98.3009318,57.2836463 C98.4691925,58.923337 98.3140542,60.4947384 97.8355123,61.9978976 C97.3569703,63.5010567 96.565473,64.8945147 95.4609965,66.1783134 Z M94.7272359,59.7652859 C94.1232886,57.3602453 92.3456835,54.5915056 89.3943673,51.4589837 C86.4517828,48.3357297 83.80248,46.4057572 81.4463794,45.6690082 C79.0902788,44.9322593 77.0364507,45.389024 75.2848335,47.0393162 C73.5332162,48.6896084 72.957475,50.7059279 73.5575926,53.0883351 C74.1577101,55.4707424 75.9334003,58.2281655 78.8847165,61.3606874 C81.8534961,64.5117448 84.5112624,66.4599846 86.8580952,67.2054653 C89.204928,67.950946 91.2541223,67.498547 93.0057395,65.8482548 C94.7573568,64.1979626 95.3311831,62.1703266 94.7272359,59.7652859 Z M131.515341,33.9567817 L124.363198,20.1523602 C123.754003,18.9765477 123.163697,18.3215717 122.592262,18.1874125 C122.020826,18.0532532 120.982464,18.3187639 119.477143,18.9839524 L118.563356,17.2202425 L127.44974,12.61616 L128.363527,14.3798699 C126.940623,15.2318103 126.120659,15.9326935 125.903611,16.4825405 C125.686563,17.0323876 125.879704,17.8895515 126.483041,19.0540581 L137.395771,40.116824 L135.055464,41.3293496 L109.550416,26.6868553 L118.284115,43.5438516 C118.887452,44.7083582 119.476294,45.3605078 120.050658,45.50032 C120.625022,45.6401321 121.676154,45.3715904 123.204087,44.6946865 L124.117874,46.4583964 L115.214531,51.0712654 L114.300744,49.3075555 C115.723648,48.4556151 116.54225,47.7590227 116.756574,47.2177574 C116.970898,46.6764922 116.773466,45.8179662 116.164271,44.6421537 L107.896253,28.6839712 C107.287058,27.5081587 106.699578,26.8517183 106.133796,26.7146302 C105.568014,26.5775421 104.526825,26.8445172 103.010198,27.5155634 L102.096411,25.7518535 L110.016146,21.6485967 L131.515341,33.9567817 Z M171.019838,33.3786516 C170.867009,32.5956935 170.665769,31.9967632 170.416111,31.5818425 C170.166454,31.1669219 169.889011,30.9668903 169.583775,30.9817416 C169.418439,30.989786 169.027723,31.212766 168.411615,31.650688 C168.091462,31.8829861 167.832738,32.0676737 167.635435,32.2047564 C166.906721,32.6864022 166.106143,33.0663661 165.233677,33.3446594 C164.361211,33.6229527 163.454419,33.7849927 162.513273,33.8307843 C160.809037,33.9137041 159.230182,33.6909432 157.776662,33.1624948 C156.323142,32.6340463 155.001668,31.8059759 153.812201,30.6782585 C152.394149,29.3066973 151.285335,27.6747106 150.485727,25.7822497 C149.686119,23.8897887 149.230629,21.7989532 149.119245,19.5096804 C149.008478,17.2331257 149.250536,15.1338472 149.845426,13.2117816 C150.440315,11.2897161 151.383206,9.57702565 152.674127,8.07365893 C153.759976,6.80973918 154.996761,5.83170014 156.384517,5.13951246 C157.772273,4.44732479 159.267374,4.06225203 160.869865,3.98428262 C161.429465,3.95705521 162.033638,3.99458657 162.682404,4.09687784 C163.33117,4.19916911 164.211084,4.40175765 165.322175,4.70464954 C165.632361,4.79154369 166.05979,4.93009833 166.604473,5.12031762 C167.485399,5.40891163 168.103907,5.54454334 168.460016,5.5272168 C168.841561,5.50865266 169.145727,5.34087627 169.372521,5.0238826 C169.599315,4.70688893 169.748112,4.22796951 169.818917,3.58710995 L171.76479,3.49243329 L172.548977,13.3214059 L170.488642,13.4216518 C169.615127,10.927243 168.404757,9.04204862 166.857495,7.76601206 C165.310234,6.4899755 163.512816,5.90177983 161.465189,6.00140741 C158.908834,6.12578718 157.065214,7.27358101 155.934271,9.44482334 C154.803329,11.6160657 154.344918,14.9018831 154.559025,19.3023742 C154.762612,23.4866562 155.572906,26.6470041 156.989932,28.7835127 C158.406958,30.9200213 160.355465,31.9279271 162.83551,31.8072601 C164.387128,31.7317659 165.671625,31.210337 166.68904,30.2429577 C167.706454,29.2755783 168.182667,28.1242014 168.117692,26.7887922 L168.022087,24.8238429 C167.957732,23.5011519 167.696887,22.6597207 167.239545,22.299524 C166.782204,21.9393273 165.724392,21.7485814 164.066078,21.7272806 L163.969545,19.7432541 L176.083553,19.1538454 L176.180086,21.1378719 C174.647993,21.3526473 173.678368,21.6643476 173.271182,22.0729821 C172.863997,22.4816166 172.691347,23.3218304 172.753227,24.5936486 L173.17556,33.2737647 L171.019838,33.3786516 Z M222.353218,27.565577 C222.047629,28.854091 222.067576,29.7355994 222.41306,30.2101286 C222.758544,30.6846578 223.718644,31.1609973 225.293391,31.6391617 L224.835009,33.571923 L212.66233,30.6850034 L213.120711,28.752242 C214.75486,29.0351117 215.833546,29.039027 216.3568,28.7639879 C216.880055,28.4889488 217.293001,27.7133786 217.595651,26.4372542 L221.743119,8.94948042 C222.04577,7.67335594 222.025088,6.7949449 221.681073,6.31422095 C221.337059,5.83349699 220.371498,5.35259089 218.784362,4.87148823 L219.242743,2.93872684 L231.415423,5.82564653 L230.957042,7.75840792 C229.335282,7.47847655 228.263526,7.4729331 227.741741,7.7417774 C227.219956,8.01062171 226.806275,8.7892892 226.500686,10.0778032 L224.460008,18.6823083 L235.782084,12.1612382 C236.460087,11.7854923 236.926688,11.4872084 237.181901,11.2663774 C237.437113,11.0455464 237.591163,10.8236282 237.644053,10.6006162 C237.743957,10.1793712 237.608424,9.82661486 237.237449,9.54233659 C236.866474,9.25805831 236.191609,8.99985801 235.212834,8.76772794 L234.841149,8.67957772 L235.29953,6.74681633 L246.747425,9.46184309 L246.289044,11.3946045 C246.227096,11.3799127 246.141839,11.3531498 246.033272,11.3143151 C245.924704,11.2754803 245.839448,11.2487175 245.7775,11.2340257 C244.897841,11.0254025 243.952023,11.0268261 242.940017,11.2382968 C241.928012,11.4497674 240.88376,11.8662351 239.807232,12.4877122 L231.833137,16.9761477 L237.575622,31.3328174 C237.998867,32.3623322 238.50156,33.1947526 239.083718,33.8301037 C239.665875,34.4654548 240.408965,35.0015603 241.313009,35.4384361 L240.854628,37.3711975 L228.719117,34.4930928 L229.177498,32.5603314 C229.254773,32.565572 229.361552,32.584353 229.497837,32.6166749 C231.491284,32.9847569 232.554104,32.8900343 232.68633,32.3325042 C232.727467,32.1590504 232.729648,31.956731 232.692873,31.72554 C232.656098,31.4943491 232.572705,31.239019 232.44269,30.959542 L227.75728,19.3465247 L223.781251,21.5442819 L222.353218,27.565577 Z M263.126947,46.9630106 C261.523471,46.4181488 260.1389,45.6249171 258.97319,44.5832916 C257.807481,43.5416661 256.876704,42.263851 256.180833,40.7498081 C255.361706,38.9652623 254.929846,37.0601815 254.88524,35.0345084 C254.840634,33.0088352 255.189078,30.9049436 255.930582,28.7227704 C256.672085,26.5405972 257.67252,24.6649766 258.931916,23.0958521 C260.191311,21.5267277 261.697457,20.2801822 263.450399,19.3561784 C264.904395,18.599558 266.421957,18.1604137 268.003131,18.0387324 C269.584305,17.917051 271.16455,18.1245414 272.743913,18.6612097 C274.323276,19.197878 275.702785,19.9961136 276.882482,21.0559404 C278.062179,22.1157671 278.99199,23.38653 279.671942,24.8682672 C280.499029,26.6689658 280.933903,28.5750708 280.976577,30.5866394 C281.019252,32.598208 280.669842,34.6950474 279.928339,36.8772206 C279.182738,39.07145 278.181221,40.9601508 276.923757,42.5433799 C275.666292,44.1266089 274.171237,45.3701988 272.438545,46.2741869 C270.980452,47.0428635 269.46488,47.4860459 267.891782,47.6037475 C266.318685,47.7214491 264.730422,47.5078723 263.126947,46.9630106 Z M261.909539,44.261113 C264.038985,45.3823127 266.143097,45.2670101 268.22194,43.9152018 C270.300783,42.5633935 272.342728,39.9834206 274.347836,36.1752058 C276.347012,32.3782579 277.312685,29.2459942 277.244883,26.7783208 C277.177081,24.3106474 276.078474,22.5162377 273.949028,21.395038 C271.819583,20.2738383 269.725552,20.3836569 267.666875,21.7244972 C265.608198,23.0653374 263.576335,25.6398263 261.571227,29.4480411 C259.554254,33.2787898 258.574049,36.4249875 258.630584,38.8867286 C258.687119,41.3484697 259.780093,43.1399133 261.909539,44.261113 Z M306.986453,66.4953093 L316.975088,54.5813523 C317.825885,53.566563 318.203232,52.7696535 318.107138,52.1905999 C318.011045,51.6115463 317.366366,50.7553441 316.173083,49.6219677 L317.449272,48.0997914 L325.118699,54.5298221 L323.84251,56.0519984 C322.508577,55.0665627 321.546112,54.5794925 320.955083,54.590773 C320.364055,54.6020535 319.647244,55.110202 318.804627,56.1152337 L303.563982,74.2935317 L301.544171,72.6001267 L305.243135,43.4243188 L293.04571,57.9728118 C292.203094,58.9778435 291.827793,59.7723136 291.919796,60.356246 C292.011799,60.9401785 292.66419,61.8070006 293.876988,62.9567384 L292.600799,64.4789148 L284.916736,58.0366131 L286.192925,56.5144367 C287.526858,57.4998724 288.484839,57.9873369 289.066898,57.9768448 C289.648957,57.9663527 290.365375,57.4537197 291.216172,56.4389304 L302.76323,42.6661619 C303.614028,41.6513726 303.993813,40.8565083 303.902599,40.281545 C303.811384,39.7065818 303.164266,38.8483345 301.961225,37.7067773 L303.237415,36.184601 L310.072572,41.9151818 L306.986453,66.4953093 Z M326.547881,104.782665 C327.134409,104.241957 327.538856,103.756531 327.761232,103.326372 C327.983609,102.896214 328.008443,102.555083 327.835734,102.302969 C327.742183,102.166407 327.347432,101.950651 326.65147,101.655692 C326.285788,101.504905 325.992858,101.381456 325.772671,101.285342 C324.980428,100.91743 324.237081,100.435006 323.542606,99.8380569 C322.848132,99.2411074 322.234644,98.5539675 321.702124,97.7766167 C320.737831,96.3689814 320.099568,94.9078091 319.787315,93.3930561 C319.475061,91.878303 319.487174,90.318865 319.823651,88.7146951 C320.247888,86.7880204 321.056034,84.9880902 322.248112,83.3148506 C323.440191,81.6416111 324.981634,80.1573543 326.872487,78.8620357 C328.752836,77.5739134 330.667256,76.6791748 332.615806,76.177793 C334.564355,75.6764112 336.517116,75.5811393 338.474147,75.8919743 C340.119756,76.1537607 341.601094,76.6939778 342.918204,77.5126419 C344.235314,78.3313061 345.347214,79.4024207 346.253937,80.7260181 C346.570571,81.1882267 346.855438,81.7223478 347.108547,82.3283975 C347.361656,82.9344471 347.650577,83.78991 347.975318,84.8948117 C348.06399,85.2044952 348.170154,85.6410978 348.293814,86.2046326 C348.510034,87.1060565 348.718887,87.7038259 348.920381,87.9979586 C349.136267,88.3131009 349.438627,88.4841099 349.827469,88.5109908 C350.216311,88.5378718 350.702128,88.4134277 351.284935,88.1376549 L352.38595,89.7448723 L344.428029,95.5668267 L343.262248,93.8650672 C344.928115,91.8132408 345.898606,89.7940574 346.173749,87.8074564 C346.448893,85.8208554 346.007176,83.9819508 344.848586,82.2906875 C343.402147,80.1792346 341.458046,79.2113285 339.016227,79.3869402 C336.574407,79.5625518 333.536222,80.8952827 329.901582,83.3851728 C326.445522,85.7527273 324.179471,88.099936 323.103361,90.4268694 C322.027251,92.7538027 322.190824,94.9414488 323.594086,96.9898733 C324.472024,98.2714517 325.589589,99.0917378 326.946814,99.4507563 C328.30404,99.8097747 329.534133,99.6114857 330.63713,98.8558832 L332.260105,97.7440737 C333.352598,96.9956674 333.932272,96.3323242 333.999145,95.7540242 C334.066018,95.1757243 333.673725,94.1749963 332.822255,92.7518102 L334.460987,91.6292064 L341.315346,101.634922 L339.676615,102.757526 C338.690321,101.565611 337.916452,100.903451 337.354984,100.771027 C336.793516,100.638602 335.987557,100.932196 334.937083,101.651818 L327.767633,106.563209 L326.547881,104.782665 Z" id="HONG-KONG" fill="#000000"></path>
                    <g id="banner" transform="translate(0.000000, 239.000000)">
                        <path d="M365.239583,26.7377049 C335.749021,27.9883694 278,11 278,11 L278,70.0163934 C278,70.0163934 340.5,83.1311467 358.729167,85.7540984 C376.958333,88.3770492 403,91 403,91 C403,91 380.217734,66.0819672 380.864583,56.2459016 C381.511433,46.4098361 400.395833,21.4918033 400.395833,21.4918033 C400.395833,21.4918033 376.98166,26.2397355 365.239583,26.7377049 Z" id="banner-right" stroke="#970015" stroke-width="2" fill="url(#linearGradient-1)"></path>
                        <path d="M78.8645833,26.9344262 C52.2051149,28.200724 0,11 0,11 L0,70.7540984 C0,70.7540984 56.5000004,84.0327861 72.9791667,86.6885246 C89.4583333,89.3442623 113,92 113,92 C113,92 92.4048314,66.7704918 92.9895833,56.8114754 C93.5743358,46.852459 110.645833,21.6229508 110.645833,21.6229508 C110.645833,21.6229508 89.4794204,26.4302322 78.8645833,26.9344262 Z" id="banner-left" stroke="#970015" stroke-width="2" fill="url(#linearGradient-2)" transform="translate(56.500000, 51.500000) scale(-1, 1) translate(-56.500000, -51.500000) "></path>
                        <path d="M194.314136,0 C80.2251309,-4.74806686e-06 58,12.5806452 58,12.5806452 L58,78 C58,78 121.172997,66.6774224 194.314136,66.6774194 C267.455276,66.6774163 341,78 341,78 L341,12.5806452 C341,12.5806452 308.403141,4.80973002e-06 194.314136,0 Z" stroke="#970015" stroke-width="2" fill="url(#linearGradient-3)"></path>
                        <path d="M132.60445,15.9874 C135.374664,15.9874 137.383894,16.7397925 138.6322,18.2446 C139.880506,19.7494075 140.50465,21.7158879 140.50465,24.1441 L136.45195,24.8623 C136.48615,23.2890921 136.204003,22.0408046 135.6055,21.1174 C135.006997,20.1939954 133.989557,19.7323 132.55315,19.7323 C131.732346,19.7323 131.065453,19.9203981 130.55245,20.2966 C130.039447,20.6728019 129.637601,21.1430472 129.3469,21.70735 C129.056199,22.2716528 128.859551,22.8957966 128.75695,23.5798 C128.654349,24.2638034 128.60305,24.9135969 128.60305,25.5292 L128.60305,43.5355 C128.60305,44.0485026 128.654349,44.604247 128.75695,45.20275 C128.859551,45.801253 129.056199,46.3484475 129.3469,46.84435 C129.637601,47.3402525 130.030898,47.7591983 130.5268,48.1012 C131.022702,48.4432017 131.681046,48.6142 132.50185,48.6142 C133.835657,48.6142 134.818897,48.2038041 135.4516,47.383 C136.084303,46.5621959 136.41775,45.2626089 136.45195,43.4842 L140.60725,44.2024 C140.53885,46.7674128 139.846307,48.7680928 138.5296,50.2045 C137.212893,51.6409072 135.237863,52.3591 132.60445,52.3591 C129.902636,52.3591 127.884857,51.6067075 126.55105,50.1019 C125.217243,48.5970925 124.55035,46.4767137 124.55035,43.7407 L124.55035,26.0935 C124.55035,24.8280937 124.661499,23.5883561 124.8838,22.37425 C125.106101,21.1601439 125.507947,20.0828547 126.08935,19.14235 C126.670753,18.2018453 127.491545,17.4409029 128.55175,16.8595 C129.611955,16.2780971 130.962842,15.9874 132.60445,15.9874 Z M144.55735,52 L144.55735,16.2952 L148.61005,16.2952 L148.61005,48.3064 L159.02395,48.3064 L159.02395,52 L144.55735,52 Z M175.02955,52 L173.38795,44.0485 L165.43645,44.0485 L163.84615,52 L159.94735,52 L167.53975,16.2952 L171.33595,16.2952 L179.03095,52 L175.02955,52 Z M169.28395,23.5798 L167.79625,31.8904 L166.10335,40.2523 L172.66975,40.2523 L170.92555,31.7878 L169.48915,23.5798 L169.28395,23.5798 Z M198.01195,42.253 C198.01195,43.7920077 197.866601,45.1770938 197.5759,46.4083 C197.285199,47.6395062 196.806403,48.6996956 196.1395,49.5889 C195.472597,50.4781044 194.609055,51.1620976 193.54885,51.6409 C192.488645,52.1197024 191.171958,52.3591 189.59875,52.3591 C188.162343,52.3591 186.914055,52.1539021 185.85385,51.7435 C184.793645,51.3330979 183.921553,50.7602537 183.23755,50.02495 C182.553547,49.2896463 182.049102,48.426105 181.7242,47.4343 C181.399298,46.442495 181.23685,45.3652058 181.23685,44.2024 L185.28955,43.3816 C185.28955,44.0656034 185.357949,44.706847 185.49475,45.30535 C185.631551,45.903853 185.862398,46.4424976 186.1873,46.9213 C186.512202,47.4001024 186.956797,47.7762986 187.5211,48.0499 C188.085403,48.3235014 188.777946,48.4603 189.59875,48.4603 C190.624755,48.4603 191.436997,48.2978516 192.0355,47.97295 C192.634003,47.6480484 193.078599,47.2034528 193.3693,46.63915 C193.660001,46.0748472 193.83955,45.4165038 193.90795,44.6641 C193.97635,43.9116962 194.01055,43.1251041 194.01055,42.3043 C194.01055,41.2440947 193.959251,40.3805533 193.85665,39.71365 C193.754049,39.0467467 193.531752,38.4653525 193.18975,37.96945 C192.847748,37.4735475 192.360403,37.0375019 191.7277,36.6613 C191.094997,36.2850981 190.248555,35.8747022 189.18835,35.4301 C187.512542,34.7118964 186.170205,33.9851537 185.1613,33.24985 C184.152395,32.5145463 183.374353,31.745054 182.82715,30.94135 C182.279947,30.137646 181.920851,29.2826545 181.74985,28.37635 C181.578849,27.4700455 181.49335,26.4697055 181.49335,25.3753 C181.49335,24.0072932 181.664348,22.7504557 182.00635,21.60475 C182.348352,20.4590443 182.869896,19.4672542 183.571,18.62935 C184.272104,17.7914458 185.152745,17.1416523 186.21295,16.67995 C187.273155,16.2182477 188.504343,15.9874 189.90655,15.9874 C191.445558,15.9874 192.736595,16.2267976 193.7797,16.7056 C194.822805,17.1844024 195.660697,17.8085462 196.2934,18.57805 C196.926103,19.3475538 197.370699,20.1939954 197.6272,21.1174 C197.883701,22.0408046 198.01195,22.9470956 198.01195,23.8363 L194.01055,24.8623 C194.01055,23.254892 193.685653,22.0151544 193.03585,21.14305 C192.386047,20.2709456 191.274558,19.8349 189.70135,19.8349 C188.812146,19.8349 188.102503,20.0058983 187.5724,20.3479 C187.042297,20.6899017 186.623352,21.1259473 186.31555,21.65605 C186.007748,22.1861527 185.802551,22.7760968 185.69995,23.4259 C185.597349,24.0757032 185.54605,24.7083969 185.54605,25.324 C185.54605,26.0764038 185.5888,26.7347472 185.6743,27.29905 C185.7598,27.8633528 185.990648,28.3934475 186.36685,28.88935 C186.743052,29.3852525 187.298796,29.8725976 188.0341,30.3514 C188.769404,30.8302024 189.803943,31.3260974 191.13775,31.8391 C192.676758,32.4547031 193.899395,33.0959467 194.8057,33.76285 C195.712005,34.4297533 196.404548,35.1735959 196.88335,35.9944 C197.362152,36.8152041 197.669949,37.7385949 197.80675,38.7646 C197.943551,39.7906051 198.01195,40.9533935 198.01195,42.253 Z M218.22415,42.253 C218.22415,43.7920077 218.078801,45.1770938 217.7881,46.4083 C217.497399,47.6395062 217.018603,48.6996956 216.3517,49.5889 C215.684797,50.4781044 214.821255,51.1620976 213.76105,51.6409 C212.700845,52.1197024 211.384158,52.3591 209.81095,52.3591 C208.374543,52.3591 207.126255,52.1539021 206.06605,51.7435 C205.005845,51.3330979 204.133753,50.7602537 203.44975,50.02495 C202.765747,49.2896463 202.261302,48.426105 201.9364,47.4343 C201.611498,46.442495 201.44905,45.3652058 201.44905,44.2024 L205.50175,43.3816 C205.50175,44.0656034 205.570149,44.706847 205.70695,45.30535 C205.843751,45.903853 206.074598,46.4424976 206.3995,46.9213 C206.724402,47.4001024 207.168997,47.7762986 207.7333,48.0499 C208.297603,48.3235014 208.990146,48.4603 209.81095,48.4603 C210.836955,48.4603 211.649197,48.2978516 212.2477,47.97295 C212.846203,47.6480484 213.290799,47.2034528 213.5815,46.63915 C213.872201,46.0748472 214.05175,45.4165038 214.12015,44.6641 C214.18855,43.9116962 214.22275,43.1251041 214.22275,42.3043 C214.22275,41.2440947 214.171451,40.3805533 214.06885,39.71365 C213.966249,39.0467467 213.743952,38.4653525 213.40195,37.96945 C213.059948,37.4735475 212.572603,37.0375019 211.9399,36.6613 C211.307197,36.2850981 210.460755,35.8747022 209.40055,35.4301 C207.724742,34.7118964 206.382405,33.9851537 205.3735,33.24985 C204.364595,32.5145463 203.586553,31.745054 203.03935,30.94135 C202.492147,30.137646 202.133051,29.2826545 201.96205,28.37635 C201.791049,27.4700455 201.70555,26.4697055 201.70555,25.3753 C201.70555,24.0072932 201.876548,22.7504557 202.21855,21.60475 C202.560552,20.4590443 203.082096,19.4672542 203.7832,18.62935 C204.484304,17.7914458 205.364945,17.1416523 206.42515,16.67995 C207.485355,16.2182477 208.716543,15.9874 210.11875,15.9874 C211.657758,15.9874 212.948795,16.2267976 213.9919,16.7056 C215.035005,17.1844024 215.872897,17.8085462 216.5056,18.57805 C217.138303,19.3475538 217.582899,20.1939954 217.8394,21.1174 C218.095901,22.0408046 218.22415,22.9470956 218.22415,23.8363 L214.22275,24.8623 C214.22275,23.254892 213.897853,22.0151544 213.24805,21.14305 C212.598247,20.2709456 211.486758,19.8349 209.91355,19.8349 C209.024346,19.8349 208.314703,20.0058983 207.7846,20.3479 C207.254497,20.6899017 206.835552,21.1259473 206.52775,21.65605 C206.219948,22.1861527 206.014751,22.7760968 205.91215,23.4259 C205.809549,24.0757032 205.75825,24.7083969 205.75825,25.324 C205.75825,26.0764038 205.801,26.7347472 205.8865,27.29905 C205.972,27.8633528 206.202848,28.3934475 206.57905,28.88935 C206.955252,29.3852525 207.510996,29.8725976 208.2463,30.3514 C208.981604,30.8302024 210.016143,31.3260974 211.34995,31.8391 C212.888958,32.4547031 214.111595,33.0959467 215.0179,33.76285 C215.924205,34.4297533 216.616748,35.1735959 217.09555,35.9944 C217.574352,36.8152041 217.882149,37.7385949 218.01895,38.7646 C218.155751,39.7906051 218.22415,40.9533935 218.22415,42.253 Z M239.77015,19.8349 C238.607344,19.8691002 237.778002,20.3564453 237.2821,21.29695 C236.786198,22.2374547 236.53825,23.6652904 236.53825,25.5805 L236.53825,25.8883 L232.48555,25.1701 L232.48555,24.9649 C232.48555,23.5968932 232.622349,22.3657055 232.89595,21.2713 C233.169551,20.1768945 233.605597,19.2364039 234.2041,18.4498 C234.802603,17.6631961 235.572095,17.0561521 236.5126,16.62865 C237.453105,16.2011479 238.573144,15.9874 239.87275,15.9874 C241.206557,15.9874 242.335145,16.1754981 243.25855,16.5517 C244.181955,16.9279019 244.934347,17.4579966 245.51575,18.142 C246.097153,18.8260034 246.516099,19.6553451 246.7726,20.63005 C247.029101,21.6047549 247.15735,22.690594 247.15735,23.8876 C247.15735,26.7262142 246.507556,29.4621868 245.20795,32.0956 L237.20515,48.2551 L246.90085,48.2551 L246.90085,52 L232.58815,52 L232.58815,48.4603 L241.87345,29.941 C242.352252,29.0175954 242.651499,28.0429051 242.7712,27.0169 C242.890901,25.9908949 242.95075,24.9649051 242.95075,23.9389 C242.95075,23.4600976 242.91655,22.9727525 242.84815,22.47685 C242.77975,21.9809475 242.642951,21.536352 242.43775,21.14305 C242.232549,20.749748 241.916202,20.4334012 241.4887,20.194 C241.061198,19.9545988 240.488354,19.8349 239.77015,19.8349 Z M252.13345,52 L252.13345,47.3317 L256.59655,47.3317 L256.59655,52 L252.13345,52 Z M276.34705,45.4849 C276.34705,46.6135056 276.150402,47.6052957 275.7571,48.4603 C275.363798,49.3153043 274.833703,50.0334971 274.1668,50.6149 C273.499897,51.1963029 272.730404,51.6323485 271.8583,51.92305 C270.986196,52.2137515 270.071355,52.3591 269.11375,52.3591 C268.156145,52.3591 267.241304,52.2137515 266.3692,51.92305 C265.497096,51.6323485 264.727603,51.1963029 264.0607,50.6149 C263.393797,50.0334971 262.863702,49.3153043 262.4704,48.4603 C262.077098,47.6052957 261.88045,46.6135056 261.88045,45.4849 L261.88045,22.9642 C261.88045,21.8355944 262.077098,20.8352544 262.4704,19.96315 C262.863702,19.0910456 263.393797,18.3643029 264.0607,17.7829 C264.727603,17.2014971 265.497096,16.7569015 266.3692,16.4491 C267.241304,16.1412985 268.156145,15.9874 269.11375,15.9874 C271.234161,15.9874 272.969793,16.585894 274.3207,17.7829 C275.671607,18.979906 276.34705,20.7069887 276.34705,22.9642 L276.34705,45.4849 Z M272.29435,22.8103 C272.29435,21.9210956 271.995103,21.2029027 271.3966,20.6557 C270.798097,20.1084973 270.037155,19.8349 269.11375,19.8349 C268.190345,19.8349 267.429403,20.1084973 266.8309,20.6557 C266.232397,21.2029027 265.93315,21.9210956 265.93315,22.8103 L265.93315,45.6388 C265.93315,46.5280044 266.232397,47.2461973 266.8309,47.7934 C267.429403,48.3406027 268.190345,48.6142 269.11375,48.6142 C270.037155,48.6142 270.798097,48.3406027 271.3966,47.7934 C271.995103,47.2461973 272.29435,46.5280044 272.29435,45.6388 L272.29435,22.8103 Z" id="name" fill="#FFFFFF"></path>
                    </g>
                    <path d="M154.0595,172.301 L146.0615,215 L126.7115,215 L113.6825,125.216 L133.6775,125.216 L138.4505,175.268 L139.0955,175.268 L147.3515,125.216 L161.7995,125.216 L170.0555,176.171 L170.8295,176.171 L174.8285,125.216 L194.8235,125.216 L181.7945,215 L162.4445,215 L154.8335,172.301 L154.0595,172.301 Z M225.7835,125.216 C231.115527,125.216 235.329485,126.140491 238.4255,127.9895 C241.521515,129.838509 243.671494,132.955978 244.8755,137.342 C245.649504,140.094014 246.100999,144.372471 246.23,150.1775 C246.359001,155.982529 246.4235,162.582963 246.4235,169.979 C246.4235,177.375037 246.359001,183.824972 246.23,189.329 C246.100999,194.833028 245.563505,198.960986 244.6175,201.713 C242.983492,206.787025 240.382018,210.269991 236.813,212.162 C233.243982,214.054009 229.180523,215 224.6225,215 L202.1765,215 L202.1765,125.216 L225.7835,125.216 Z M228.8795,149.855 C228.8795,147.360988 228.471004,145.447507 227.654,144.1145 C226.836996,142.781493 225.052514,142.115 222.3005,142.115 L219.5915,142.115 L219.5915,198.101 L222.3005,198.101 C225.052514,198.101 226.836996,197.456006 227.654,196.166 C228.471004,194.875994 228.8795,192.941013 228.8795,190.361 L228.8795,149.855 Z M259.8395,215 L259.8395,125.216 L277.3835,125.216 L277.3835,215 L259.8395,215 Z" id="WDI" fill="#FFFFFF"></path>
                </g>
            </g>
        </g>
    </g>
</svg>